<?xml version="1.0" encoding="utf-8"?>
<!-- Generator: Adobe Illustrator 18.1.1, SVG Export Plug-In . SVG Version: 6.00 Build 0)  -->
<svg version="1.1" id="Layer_1" xmlns="http://www.w3.org/2000/svg" xmlns:xlink="http://www.w3.org/1999/xlink" x="0px" y="0px"
	 viewBox="0 0 200 200" enable-background="new 0 0 200 200" xml:space="preserve">
<text transform="matrix(1 0 0 1 58.1765 154.696)" fill="#FFFFFF" font-family="'MyriadPro-Regular'" font-size="16">Get A Coffee</text>
<g id="coffee">
	<path fill="#FFFFFF" d="M124,43H76l3.8-9.5h40.4L124,43z M79,41h42l-2.2-5.5H81.2L79,41z"/>
	<path fill="#FFFFFF" d="M128.3,49H71.7l2-8h52.6L128.3,49z M74.3,47h51.4l-1-4H75.3L74.3,47z"/>
	<path fill="#FFFFFF" d="M120.5,116.5H79.5L76.5,47h47.1L120.5,116.5z M81.5,114.5h37.1l2.9-65.5H78.5L81.5,114.5z"/>
	<rect x="77.5" y="60.5" fill="#FFFFFF" width="45" height="2"/>
	<rect x="79" y="87.5" fill="#FFFFFF" width="42" height="2"/>
	<path fill="#FFFFFF" d="M85,80.5c-3,0-5.5-2.5-5.5-5.5s2.5-5.5,5.5-5.5s5.5,2.5,5.5,5.5S88,80.5,85,80.5z M85,71.5
		c-1.9,0-3.5,1.6-3.5,3.5s1.6,3.5,3.5,3.5s3.5-1.6,3.5-3.5S86.9,71.5,85,71.5z"/>
	<path fill="#FFFFFF" d="M100,80.5c-3,0-5.5-2.5-5.5-5.5s2.5-5.5,5.5-5.5s5.5,2.5,5.5,5.5S103,80.5,100,80.5z M100,71.5
		c-1.9,0-3.5,1.6-3.5,3.5s1.6,3.5,3.5,3.5s3.5-1.6,3.5-3.5S101.9,71.5,100,71.5z"/>
	<path fill="#FFFFFF" d="M115,80.5c-3,0-5.5-2.5-5.5-5.5s2.5-5.5,5.5-5.5s5.5,2.5,5.5,5.5S118,80.5,115,80.5z M115,71.5
		c-1.9,0-3.5,1.6-3.5,3.5s1.6,3.5,3.5,3.5s3.5-1.6,3.5-3.5S116.9,71.5,115,71.5z"/>
</g>
</svg>
