<?xml version="1.0" encoding="utf-8"?>
<!-- Generator: Adobe Illustrator 18.1.1, SVG Export Plug-In . SVG Version: 6.00 Build 0)  -->
<svg version="1.1" id="Layer_1" xmlns="http://www.w3.org/2000/svg" xmlns:xlink="http://www.w3.org/1999/xlink" x="0px" y="0px"
	 viewBox="0 0 200 200" enable-background="new 0 0 200 200" xml:space="preserve">
<g>
	<path fill="#FFFFFF" d="M67.8,154.2c-0.6,0.2-1.9,0.6-3.3,0.6c-1.6,0-3-0.4-4-1.4c-0.9-0.9-1.5-2.3-1.5-4c0-3.2,2.2-5.6,5.8-5.6
		c1.2,0,2.2,0.3,2.7,0.5l-0.3,1.1c-0.6-0.3-1.3-0.5-2.4-0.5c-2.6,0-4.3,1.6-4.3,4.3c0,2.7,1.6,4.4,4.2,4.4c0.9,0,1.5-0.1,1.9-0.3
		v-3.2h-2.2V149h3.6V154.2z"/>
	<path fill="#FFFFFF" d="M70.7,151.1c0,1.9,1.2,2.7,2.7,2.7c1,0,1.6-0.2,2.1-0.4l0.2,1c-0.5,0.2-1.3,0.5-2.6,0.5
		c-2.4,0-3.8-1.6-3.8-3.9s1.4-4.2,3.6-4.2c2.5,0,3.2,2.2,3.2,3.6c0,0.3,0,0.5,0,0.7H70.7z M74.8,150.1c0-0.9-0.4-2.3-2-2.3
		c-1.4,0-2,1.3-2.2,2.3H74.8z"/>
	<path fill="#FFFFFF" d="M79.6,144.7v2.2h2v1.1h-2v4.2c0,1,0.3,1.5,1.1,1.5c0.4,0,0.6,0,0.8-0.1l0.1,1.1c-0.3,0.1-0.7,0.2-1.2,0.2
		c-0.7,0-1.2-0.2-1.5-0.6c-0.4-0.4-0.5-1.1-0.5-2V148H77v-1.1h1.2v-1.9L79.6,144.7z"/>
	<path fill="#FFFFFF" d="M88.4,151.3l-1.1,3.4h-1.4l3.7-10.8h1.7l3.7,10.8h-1.5l-1.2-3.4H88.4z M91.9,150.2l-1.1-3.1
		c-0.2-0.7-0.4-1.3-0.6-2h0c-0.2,0.6-0.3,1.3-0.5,2l-1.1,3.1H91.9z"/>
	<path fill="#FFFFFF" d="M107.4,154.3c-0.5,0.3-1.5,0.5-2.8,0.5c-3,0-5.3-1.9-5.3-5.5c0-3.4,2.3-5.7,5.6-5.7c1.3,0,2.2,0.3,2.6,0.5
		l-0.3,1.1c-0.5-0.3-1.3-0.4-2.2-0.4c-2.5,0-4.2,1.6-4.2,4.4c0,2.6,1.5,4.3,4.1,4.3c0.8,0,1.7-0.2,2.3-0.4L107.4,154.3z"/>
	<path fill="#FFFFFF" d="M115.9,150.8c0,2.9-2,4.1-3.9,4.1c-2.1,0-3.7-1.5-3.7-4c0-2.6,1.7-4.1,3.8-4.1
		C114.4,146.8,115.9,148.4,115.9,150.8z M109.8,150.8c0,1.7,1,3,2.4,3c1.3,0,2.4-1.3,2.4-3c0-1.3-0.7-3-2.3-3
		C110.5,147.8,109.8,149.4,109.8,150.8z"/>
	<path fill="#FFFFFF" d="M122.5,154.7V148h-3.2v6.7h-1.4V148h-1.1v-1.1h1.1v-0.3c0-1.1,0.3-2,0.9-2.6c0.4-0.4,1.1-0.7,2-0.7
		c0.4,0,0.9,0.1,1.1,0.3l-0.3,1c-0.2-0.1-0.5-0.2-0.8-0.2c-1.1,0-1.4,0.9-1.4,2.2v0.3h3.2v-0.4c0-1.1,0.3-2.1,0.9-2.7
		c0.5-0.5,1.2-0.7,1.9-0.7c0.5,0,0.9,0.1,1.2,0.2l-0.2,1.1c-0.2-0.1-0.5-0.2-0.9-0.2c-1.2,0-1.5,1.1-1.5,2.2v0.4h1.9v1.1h-1.9v6.7
		H122.5z"/>
	<path fill="#FFFFFF" d="M127.6,151.1c0,1.9,1.2,2.7,2.7,2.7c1,0,1.6-0.2,2.1-0.4l0.2,1c-0.5,0.2-1.3,0.5-2.6,0.5
		c-2.4,0-3.8-1.6-3.8-3.9s1.4-4.2,3.6-4.2c2.5,0,3.2,2.2,3.2,3.6c0,0.3,0,0.5,0,0.7H127.6z M131.7,150.1c0-0.9-0.4-2.3-2-2.3
		c-1.4,0-2,1.3-2.2,2.3H131.7z"/>
	<path fill="#FFFFFF" d="M135.6,151.1c0,1.9,1.2,2.7,2.7,2.7c1,0,1.6-0.2,2.1-0.4l0.2,1c-0.5,0.2-1.3,0.5-2.6,0.5
		c-2.4,0-3.8-1.6-3.8-3.9s1.4-4.2,3.6-4.2c2.5,0,3.2,2.2,3.2,3.6c0,0.3,0,0.5,0,0.7H135.6z M139.7,150.1c0-0.9-0.4-2.3-2-2.3
		c-1.4,0-2,1.3-2.2,2.3H139.7z"/>
</g>
<g id="coffee">
	<path fill="#FFFFFF" d="M124,43H76l3.8-9.5h40.4L124,43z M79,41h42l-2.2-5.5H81.2L79,41z"/>
	<path fill="#FFFFFF" d="M128.3,49H71.7l2-8h52.6L128.3,49z M74.3,47h51.4l-1-4H75.3L74.3,47z"/>
	<path fill="#FFFFFF" d="M120.5,116.5H79.5L76.5,47h47.1L120.5,116.5z M81.5,114.5h37.1l2.9-65.5H78.5L81.5,114.5z"/>
	<rect x="77.5" y="60.5" fill="#FFFFFF" width="45" height="2"/>
	<rect x="79" y="87.5" fill="#FFFFFF" width="42" height="2"/>
	<path fill="#FFFFFF" d="M85,80.5c-3,0-5.5-2.5-5.5-5.5s2.5-5.5,5.5-5.5s5.5,2.5,5.5,5.5S88,80.5,85,80.5z M85,71.5
		c-1.9,0-3.5,1.6-3.5,3.5s1.6,3.5,3.5,3.5s3.5-1.6,3.5-3.5S86.9,71.5,85,71.5z"/>
	<path fill="#FFFFFF" d="M100,80.5c-3,0-5.5-2.5-5.5-5.5s2.5-5.5,5.5-5.5s5.5,2.5,5.5,5.5S103,80.5,100,80.5z M100,71.5
		c-1.9,0-3.5,1.6-3.5,3.5s1.6,3.5,3.5,3.5s3.5-1.6,3.5-3.5S101.9,71.5,100,71.5z"/>
	<path fill="#FFFFFF" d="M115,80.5c-3,0-5.5-2.5-5.5-5.5s2.5-5.5,5.5-5.5s5.5,2.5,5.5,5.5S118,80.5,115,80.5z M115,71.5
		c-1.9,0-3.5,1.6-3.5,3.5s1.6,3.5,3.5,3.5s3.5-1.6,3.5-3.5S116.9,71.5,115,71.5z"/>
</g>
</svg>
