<?xml version="1.0" encoding="utf-8"?>
<!-- Generator: Adobe Illustrator 18.1.1, SVG Export Plug-In . SVG Version: 6.00 Build 0)  -->
<svg version="1.1" id="Layer_1" xmlns="http://www.w3.org/2000/svg" xmlns:xlink="http://www.w3.org/1999/xlink" x="0px" y="0px"
	 viewBox="0 0 200 200" enable-background="new 0 0 200 200" xml:space="preserve">
<text transform="matrix(1 0 0 1 42.2244 154.6967)" fill="#FFFFFF" font-family="'MyriadPro-Regular'" font-size="16">Record Shopping</text>
<g id="headphone">
	<path fill="#FFFFFF" d="M82,116.2H68.5c-0.6,0-1-0.4-1-1V86.7c0-0.6,0.4-1,1-1H82c0.6,0,1,0.4,1,1v28.5
		C83,115.8,82.6,116.2,82,116.2z M69.5,114.2H81V87.7H69.5V114.2z"/>
	<path fill="#FFFFFF" d="M69.5,113.7l-9.5-3.8V92l9.5-3.8V113.7z M62,108.5l5.5,2.2V91.2L62,93.4V108.5z"/>
	<path fill="#FFFFFF" d="M131.5,116.2H118c-0.6,0-1-0.4-1-1V86.7c0-0.6,0.4-1,1-1h13.5c0.6,0,1,0.4,1,1v28.5
		C132.5,115.8,132.1,116.2,131.5,116.2z M119,114.2h11.5V87.7H119V114.2z"/>
	<path fill="#FFFFFF" d="M130.5,113.7V88.2L140,92v17.9L130.5,113.7z M132.5,91.2v19.5l5.5-2.2V93.4L132.5,91.2z"/>
	<path fill="#FFFFFF" d="M64.2,91.6C61.4,86,60,80,60,73.8c0-22.1,17.9-40,40-40s40,17.9,40,40c0,6.2-1.4,12.2-4.2,17.8l-1.8-0.9
		c2.6-5.3,3.9-11,3.9-16.9c0-21-17-38-38-38s-38,17-38,38c0,5.9,1.3,11.6,3.9,16.9L64.2,91.6z"/>
	<path fill="#FFFFFF" d="M71.9,59.2c-0.2,0-0.3,0-0.5-0.1l-6-3.4l1-1.7l5.1,2.9C77.2,46.4,88,40,100,40c11.9,0,22.8,6.4,28.5,16.9
		l5.1-2.9l1,1.7l-6,3.4c-0.2,0.1-0.5,0.2-0.8,0.1c-0.3-0.1-0.5-0.3-0.6-0.5C122,48.4,111.5,42,100,42c-11.5,0-22,6.4-27.2,16.7
		c-0.1,0.2-0.3,0.4-0.6,0.5C72.1,59.2,72,59.2,71.9,59.2z"/>
	<rect x="73.5" y="86.7" fill="#FFFFFF" width="2" height="28.5"/>
	<rect x="124.5" y="86.7" fill="#FFFFFF" width="2" height="28.5"/>
</g>
</svg>
