<?xml version="1.0" encoding="utf-8"?>
<!-- Generator: Adobe Illustrator 18.1.1, SVG Export Plug-In . SVG Version: 6.00 Build 0)  -->
<svg version="1.1" id="Layer_1" xmlns="http://www.w3.org/2000/svg" xmlns:xlink="http://www.w3.org/1999/xlink" x="0px" y="0px"
	 viewBox="0 0 200 200" enable-background="new 0 0 200 200" xml:space="preserve">
<g>
	<path fill="#FFFFFF" d="M43.5,144.1c0.7-0.1,1.7-0.2,2.7-0.2c1.5,0,2.4,0.3,3.1,0.9c0.5,0.5,0.8,1.2,0.8,2c0,1.4-0.9,2.4-2,2.8v0
		c0.8,0.3,1.3,1.1,1.6,2.2c0.4,1.5,0.6,2.5,0.8,3h-1.4c-0.2-0.3-0.4-1.2-0.7-2.6c-0.3-1.5-0.9-2-2.2-2.1h-1.3v4.7h-1.4V144.1z
		 M44.9,149h1.4c1.5,0,2.4-0.8,2.4-2c0-1.4-1-2-2.5-2c-0.7,0-1.2,0.1-1.4,0.1V149z"/>
	<path fill="#FFFFFF" d="M52.9,151.1c0,1.9,1.2,2.7,2.7,2.7c1,0,1.6-0.2,2.1-0.4l0.2,1c-0.5,0.2-1.3,0.5-2.6,0.5
		c-2.4,0-3.8-1.6-3.8-3.9s1.4-4.2,3.6-4.2c2.5,0,3.2,2.2,3.2,3.6c0,0.3,0,0.5,0,0.7H52.9z M57.1,150.1c0-0.9-0.4-2.3-2-2.3
		c-1.4,0-2,1.3-2.2,2.3H57.1z"/>
	<path fill="#FFFFFF" d="M65.7,154.4c-0.4,0.2-1.2,0.4-2.2,0.4c-2.3,0-3.9-1.6-3.9-4c0-2.4,1.6-4.1,4.2-4.1c0.8,0,1.6,0.2,2,0.4
		l-0.3,1.1c-0.3-0.2-0.9-0.4-1.6-0.4c-1.8,0-2.7,1.3-2.7,2.9c0,1.8,1.2,2.9,2.7,2.9c0.8,0,1.3-0.2,1.7-0.4L65.7,154.4z"/>
	<path fill="#FFFFFF" d="M74.3,150.8c0,2.9-2,4.1-3.9,4.1c-2.1,0-3.7-1.5-3.7-4c0-2.6,1.7-4.1,3.8-4.1
		C72.8,146.8,74.3,148.4,74.3,150.8z M68.1,150.8c0,1.7,1,3,2.4,3c1.3,0,2.4-1.3,2.4-3c0-1.3-0.7-3-2.3-3
		C68.8,147.8,68.1,149.4,68.1,150.8z"/>
	<path fill="#FFFFFF" d="M76,149.4c0-0.9,0-1.7-0.1-2.4h1.2l0,1.5h0.1c0.4-1,1.2-1.7,2.1-1.7c0.2,0,0.3,0,0.4,0v1.3
		c-0.1,0-0.3,0-0.5,0c-1,0-1.7,0.8-1.9,1.8c0,0.2-0.1,0.4-0.1,0.7v4.1H76V149.4z"/>
	<path fill="#FFFFFF" d="M87.8,143.3v9.4c0,0.7,0,1.5,0.1,2h-1.3l-0.1-1.3h0c-0.4,0.9-1.4,1.5-2.6,1.5c-1.9,0-3.3-1.6-3.3-3.9
		c0-2.6,1.6-4.2,3.5-4.2c1.2,0,2,0.6,2.3,1.2h0v-4.6H87.8z M86.4,150.1c0-0.2,0-0.4-0.1-0.6c-0.2-0.9-1-1.6-2-1.6
		c-1.5,0-2.3,1.3-2.3,3c0,1.6,0.8,2.9,2.3,2.9c0.9,0,1.8-0.6,2.1-1.7c0-0.2,0.1-0.4,0.1-0.6V150.1z"/>
	<path fill="#FFFFFF" d="M93.4,153c0.6,0.4,1.5,0.7,2.5,0.7c1.4,0,2.3-0.8,2.3-1.8c0-1-0.6-1.6-2-2.1c-1.8-0.6-2.8-1.5-2.8-3.1
		c0-1.7,1.4-2.9,3.5-2.9c1.1,0,1.9,0.3,2.4,0.5l-0.4,1.1c-0.4-0.2-1.1-0.5-2-0.5c-1.5,0-2,0.9-2,1.6c0,1,0.7,1.5,2.1,2.1
		c1.8,0.7,2.8,1.6,2.8,3.2c0,1.7-1.2,3.1-3.8,3.1c-1,0-2.2-0.3-2.8-0.7L93.4,153z"/>
	<path fill="#FFFFFF" d="M101.4,143.3h1.4v4.8h0c0.2-0.4,0.6-0.8,1-1c0.4-0.2,0.9-0.4,1.4-0.4c1,0,2.7,0.6,2.7,3.3v4.6h-1.4v-4.4
		c0-1.2-0.5-2.3-1.8-2.3c-0.9,0-1.6,0.6-1.9,1.4c-0.1,0.2-0.1,0.4-0.1,0.7v4.7h-1.4V143.3z"/>
	<path fill="#FFFFFF" d="M117.3,150.8c0,2.9-2,4.1-3.9,4.1c-2.1,0-3.7-1.5-3.7-4c0-2.6,1.7-4.1,3.8-4.1
		C115.8,146.8,117.3,148.4,117.3,150.8z M111.2,150.8c0,1.7,1,3,2.4,3c1.3,0,2.4-1.3,2.4-3c0-1.3-0.7-3-2.3-3
		S111.2,149.4,111.2,150.8z"/>
	<path fill="#FFFFFF" d="M119.1,149.5c0-1,0-1.8-0.1-2.5h1.3l0.1,1.3h0c0.6-0.9,1.5-1.5,2.8-1.5c1.9,0,3.3,1.6,3.3,3.9
		c0,2.8-1.7,4.2-3.5,4.2c-1,0-1.9-0.4-2.4-1.2h0v4.2h-1.4V149.5z M120.5,151.5c0,0.2,0,0.4,0.1,0.6c0.3,1,1.1,1.6,2.1,1.6
		c1.5,0,2.4-1.2,2.4-3c0-1.6-0.8-2.9-2.3-2.9c-1,0-1.9,0.7-2.1,1.7c0,0.2-0.1,0.4-0.1,0.6V151.5z"/>
	<path fill="#FFFFFF" d="M128.2,149.5c0-1,0-1.8-0.1-2.5h1.3l0.1,1.3h0c0.6-0.9,1.5-1.5,2.8-1.5c1.9,0,3.3,1.6,3.3,3.9
		c0,2.8-1.7,4.2-3.5,4.2c-1,0-1.9-0.4-2.4-1.2h0v4.2h-1.4V149.5z M129.6,151.5c0,0.2,0,0.4,0.1,0.6c0.3,1,1.1,1.6,2.1,1.6
		c1.5,0,2.4-1.2,2.4-3c0-1.6-0.8-2.9-2.3-2.9c-1,0-1.9,0.7-2.1,1.7c0,0.2-0.1,0.4-0.1,0.6V151.5z"/>
	<path fill="#FFFFFF" d="M138.8,144.8c0,0.5-0.3,0.9-0.9,0.9c-0.5,0-0.8-0.4-0.8-0.9c0-0.5,0.4-0.9,0.9-0.9
		C138.5,143.9,138.8,144.3,138.8,144.8z M137.3,154.7v-7.7h1.4v7.7H137.3z"/>
	<path fill="#FFFFFF" d="M141,149c0-0.8,0-1.5-0.1-2.1h1.2l0.1,1.3h0c0.4-0.7,1.3-1.5,2.6-1.5c1.1,0,2.7,0.6,2.7,3.3v4.6h-1.4v-4.5
		c0-1.2-0.5-2.3-1.8-2.3c-0.9,0-1.6,0.7-1.9,1.4c-0.1,0.2-0.1,0.4-0.1,0.7v4.7H141V149z"/>
	<path fill="#FFFFFF" d="M156.6,146.9c0,0.6-0.1,1.2-0.1,2.1v4.5c0,1.8-0.4,2.9-1.1,3.5c-0.8,0.7-1.8,0.9-2.8,0.9
		c-0.9,0-2-0.2-2.6-0.6l0.4-1.1c0.5,0.3,1.3,0.6,2.3,0.6c1.4,0,2.5-0.8,2.5-2.7v-0.9h0c-0.4,0.7-1.3,1.3-2.5,1.3
		c-1.9,0-3.3-1.6-3.3-3.8c0-2.6,1.7-4.1,3.5-4.1c1.3,0,2.1,0.7,2.4,1.3h0l0.1-1.2H156.6z M155.1,150c0-0.2,0-0.4-0.1-0.6
		c-0.3-0.8-0.9-1.5-2-1.5c-1.3,0-2.3,1.1-2.3,2.9c0,1.5,0.8,2.8,2.3,2.8c0.9,0,1.6-0.5,2-1.4c0.1-0.2,0.1-0.5,0.1-0.8V150z"/>
</g>
<g id="headphone">
	<path fill="#FFFFFF" d="M82,116.2H68.5c-0.6,0-1-0.4-1-1V86.7c0-0.6,0.4-1,1-1H82c0.6,0,1,0.4,1,1v28.5
		C83,115.8,82.6,116.2,82,116.2z M69.5,114.2H81V87.7H69.5V114.2z"/>
	<path fill="#FFFFFF" d="M69.5,113.7l-9.5-3.8V92l9.5-3.8V113.7z M62,108.5l5.5,2.2V91.2L62,93.4V108.5z"/>
	<path fill="#FFFFFF" d="M131.5,116.2H118c-0.6,0-1-0.4-1-1V86.7c0-0.6,0.4-1,1-1h13.5c0.6,0,1,0.4,1,1v28.5
		C132.5,115.8,132.1,116.2,131.5,116.2z M119,114.2h11.5V87.7H119V114.2z"/>
	<path fill="#FFFFFF" d="M130.5,113.7V88.2L140,92v17.9L130.5,113.7z M132.5,91.2v19.5l5.5-2.2V93.4L132.5,91.2z"/>
	<path fill="#FFFFFF" d="M64.2,91.6C61.4,86,60,80,60,73.8c0-22.1,17.9-40,40-40s40,17.9,40,40c0,6.2-1.4,12.2-4.2,17.8l-1.8-0.9
		c2.6-5.3,3.9-11,3.9-16.9c0-21-17-38-38-38s-38,17-38,38c0,5.9,1.3,11.6,3.9,16.9L64.2,91.6z"/>
	<path fill="#FFFFFF" d="M71.9,59.2c-0.2,0-0.3,0-0.5-0.1l-6-3.4l1-1.7l5.1,2.9C77.2,46.4,88,40,100,40c11.9,0,22.8,6.4,28.5,16.9
		l5.1-2.9l1,1.7l-6,3.4c-0.2,0.1-0.5,0.2-0.8,0.1c-0.3-0.1-0.5-0.3-0.6-0.5C122,48.4,111.5,42,100,42c-11.5,0-22,6.4-27.2,16.7
		c-0.1,0.2-0.3,0.4-0.6,0.5C72.1,59.2,72,59.2,71.9,59.2z"/>
	<rect x="73.5" y="86.7" fill="#FFFFFF" width="2" height="28.5"/>
	<rect x="124.5" y="86.7" fill="#FFFFFF" width="2" height="28.5"/>
</g>
</svg>
