<?xml version="1.0" encoding="utf-8"?>
<!-- Generator: Adobe Illustrator 18.1.1, SVG Export Plug-In . SVG Version: 6.00 Build 0)  -->
<svg version="1.1" id="Layer_1" xmlns="http://www.w3.org/2000/svg" xmlns:xlink="http://www.w3.org/1999/xlink" x="0px" y="0px"
	 viewBox="0 0 200 200" enable-background="new 0 0 200 200" xml:space="preserve">
<text transform="matrix(1 0 0 1 49.8645 154.6967)" fill="#FFFFFF" font-family="'MyriadPro-Regular'" font-size="16">Watch A Movie</text>
<g id="movie">
	<g>
		<rect x="59.5" y="46.5" fill="#FFFFFF" width="12" height="2"/>
		<rect x="59.5" y="60" fill="#FFFFFF" width="12" height="3"/>
		<rect x="59.5" y="73.5" fill="#FFFFFF" width="12" height="3"/>
		<rect x="59.5" y="87" fill="#FFFFFF" width="12" height="3"/>
		<rect x="59.5" y="101.5" fill="#FFFFFF" width="12" height="2"/>
	</g>
	<g>
		<rect x="128.5" y="46.5" fill="#FFFFFF" width="12" height="2"/>
		<rect x="128.5" y="60" fill="#FFFFFF" width="12" height="3"/>
		<rect x="128.5" y="73.5" fill="#FFFFFF" width="12" height="3"/>
		<rect x="128.5" y="87" fill="#FFFFFF" width="12" height="3"/>
		<rect x="128.5" y="101.5" fill="#FFFFFF" width="12" height="2"/>
	</g>
	<rect x="71.5" y="46.5" fill="#FFFFFF" width="57" height="2"/>
	<rect x="68.5" y="101.5" fill="#FFFFFF" width="63.8" height="2"/>
	<path fill="#FFFFFF" d="M90,88.4V61.6L113.2,75L90,88.4z M92,65V85l17.2-10L92,65z"/>
	<rect x="127.5" y="46.5" fill="#FFFFFF" width="2" height="57"/>
	<rect x="139.5" y="46.5" fill="#FFFFFF" width="2" height="57"/>
	<rect x="70.5" y="46.5" fill="#FFFFFF" width="2" height="57"/>
	<rect x="58.5" y="46.5" fill="#FFFFFF" width="2" height="57"/>
</g>
</svg>
