<?xml version="1.0" encoding="utf-8"?>
<!-- Generator: Adobe Illustrator 18.1.1, SVG Export Plug-In . SVG Version: 6.00 Build 0)  -->
<svg version="1.1" id="Layer_1" xmlns="http://www.w3.org/2000/svg" xmlns:xlink="http://www.w3.org/1999/xlink" x="0px" y="0px"
	 viewBox="0 0 200 200" enable-background="new 0 0 200 200" xml:space="preserve">
<g>
	<path fill="#FFFFFF" d="M53.2,154.7l-2.7-10.8h1.5l1.3,5.5c0.3,1.3,0.6,2.7,0.8,3.7h0c0.2-1.1,0.5-2.4,0.9-3.7l1.4-5.4h1.5l1.3,5.5
		c0.3,1.3,0.6,2.6,0.8,3.7h0c0.2-1.2,0.5-2.4,0.9-3.7l1.4-5.4h1.4l-3.1,10.8h-1.5l-1.4-5.6c-0.3-1.4-0.6-2.4-0.7-3.5h0
		c-0.2,1.1-0.4,2.1-0.8,3.5l-1.5,5.6H53.2z"/>
	<path fill="#FFFFFF" d="M68.7,154.7l-0.1-1h0c-0.4,0.6-1.3,1.2-2.4,1.2c-1.6,0-2.4-1.1-2.4-2.2c0-1.9,1.7-2.9,4.7-2.9v-0.2
		c0-0.6-0.2-1.8-1.8-1.8c-0.7,0-1.5,0.2-2,0.6l-0.3-0.9c0.6-0.4,1.6-0.7,2.5-0.7c2.4,0,2.9,1.6,2.9,3.2v2.9c0,0.7,0,1.3,0.1,1.9
		H68.7z M68.5,150.7c-1.5,0-3.3,0.2-3.3,1.7c0,0.9,0.6,1.3,1.3,1.3c1,0,1.6-0.6,1.9-1.3c0-0.1,0.1-0.3,0.1-0.4V150.7z"/>
	<path fill="#FFFFFF" d="M73.7,144.7v2.2h2v1.1h-2v4.2c0,1,0.3,1.5,1.1,1.5c0.4,0,0.6,0,0.8-0.1l0.1,1.1c-0.3,0.1-0.7,0.2-1.2,0.2
		c-0.7,0-1.2-0.2-1.5-0.6c-0.4-0.4-0.5-1.1-0.5-2V148h-1.2v-1.1h1.2v-1.9L73.7,144.7z"/>
	<path fill="#FFFFFF" d="M82.8,154.4c-0.4,0.2-1.2,0.4-2.2,0.4c-2.3,0-3.9-1.6-3.9-4c0-2.4,1.6-4.1,4.2-4.1c0.8,0,1.6,0.2,2,0.4
		l-0.3,1.1c-0.3-0.2-0.9-0.4-1.6-0.4c-1.8,0-2.7,1.3-2.7,2.9c0,1.8,1.2,2.9,2.7,2.9c0.8,0,1.3-0.2,1.7-0.4L82.8,154.4z"/>
	<path fill="#FFFFFF" d="M84.4,143.3h1.4v4.8h0c0.2-0.4,0.6-0.8,1-1c0.4-0.2,0.9-0.4,1.4-0.4c1,0,2.7,0.6,2.7,3.3v4.6h-1.4v-4.4
		c0-1.2-0.5-2.3-1.8-2.3c-0.9,0-1.6,0.6-1.9,1.4c-0.1,0.2-0.1,0.4-0.1,0.7v4.7h-1.4V143.3z"/>
	<path fill="#FFFFFF" d="M98.5,151.3l-1.1,3.4h-1.4l3.7-10.8h1.7l3.7,10.8h-1.5l-1.2-3.4H98.5z M102,150.2l-1.1-3.1
		c-0.2-0.7-0.4-1.3-0.6-2h0c-0.2,0.6-0.3,1.3-0.5,2l-1.1,3.1H102z"/>
	<path fill="#FFFFFF" d="M119,150c-0.1-1.5-0.2-3.3-0.2-4.7h0c-0.4,1.3-0.8,2.6-1.4,4.1l-1.9,5.2h-1.1l-1.7-5.1
		c-0.5-1.5-0.9-2.9-1.2-4.2h0c0,1.3-0.1,3.2-0.2,4.8l-0.3,4.6h-1.3l0.8-10.8h1.8l1.8,5.2c0.4,1.3,0.8,2.5,1.1,3.6h0
		c0.3-1.1,0.7-2.3,1.1-3.6l1.9-5.2h1.8l0.7,10.8h-1.4L119,150z"/>
	<path fill="#FFFFFF" d="M129.8,150.8c0,2.9-2,4.1-3.9,4.1c-2.1,0-3.7-1.5-3.7-4c0-2.6,1.7-4.1,3.8-4.1
		C128.3,146.8,129.8,148.4,129.8,150.8z M123.7,150.8c0,1.7,1,3,2.4,3c1.3,0,2.4-1.3,2.4-3c0-1.3-0.7-3-2.3-3
		S123.7,149.4,123.7,150.8z"/>
	<path fill="#FFFFFF" d="M132,146.9l1.5,4.4c0.3,0.7,0.5,1.3,0.6,2h0c0.2-0.6,0.4-1.3,0.7-2l1.5-4.4h1.5l-3,7.7h-1.3l-2.9-7.7H132z"
		/>
	<path fill="#FFFFFF" d="M140.8,144.8c0,0.5-0.3,0.9-0.9,0.9c-0.5,0-0.8-0.4-0.8-0.9c0-0.5,0.4-0.9,0.9-0.9
		C140.4,143.9,140.8,144.3,140.8,144.8z M139.2,154.7v-7.7h1.4v7.7H139.2z"/>
	<path fill="#FFFFFF" d="M143.7,151.1c0,1.9,1.2,2.7,2.7,2.7c1,0,1.6-0.2,2.1-0.4l0.2,1c-0.5,0.2-1.3,0.5-2.6,0.5
		c-2.4,0-3.8-1.6-3.8-3.9s1.4-4.2,3.6-4.2c2.5,0,3.2,2.2,3.2,3.6c0,0.3,0,0.5,0,0.7H143.7z M147.8,150.1c0-0.9-0.4-2.3-2-2.3
		c-1.4,0-2,1.3-2.2,2.3H147.8z"/>
</g>
<g id="movie">
	<g>
		<rect x="59.5" y="46.5" fill="#FFFFFF" width="12" height="2"/>
		<rect x="59.5" y="60" fill="#FFFFFF" width="12" height="3"/>
		<rect x="59.5" y="73.5" fill="#FFFFFF" width="12" height="3"/>
		<rect x="59.5" y="87" fill="#FFFFFF" width="12" height="3"/>
		<rect x="59.5" y="101.5" fill="#FFFFFF" width="12" height="2"/>
	</g>
	<g>
		<rect x="128.5" y="46.5" fill="#FFFFFF" width="12" height="2"/>
		<rect x="128.5" y="60" fill="#FFFFFF" width="12" height="3"/>
		<rect x="128.5" y="73.5" fill="#FFFFFF" width="12" height="3"/>
		<rect x="128.5" y="87" fill="#FFFFFF" width="12" height="3"/>
		<rect x="128.5" y="101.5" fill="#FFFFFF" width="12" height="2"/>
	</g>
	<rect x="71.5" y="46.5" fill="#FFFFFF" width="57" height="2"/>
	<rect x="68.5" y="101.5" fill="#FFFFFF" width="63.8" height="2"/>
	<path fill="#FFFFFF" d="M90,88.4V61.6L113.2,75L90,88.4z M92,65V85l17.2-10L92,65z"/>
	<rect x="127.5" y="46.5" fill="#FFFFFF" width="2" height="57"/>
	<rect x="139.5" y="46.5" fill="#FFFFFF" width="2" height="57"/>
	<rect x="70.5" y="46.5" fill="#FFFFFF" width="2" height="57"/>
	<rect x="58.5" y="46.5" fill="#FFFFFF" width="2" height="57"/>
</g>
</svg>
