<?xml version="1.0" encoding="utf-8"?>
<!-- Generator: Adobe Illustrator 18.1.1, SVG Export Plug-In . SVG Version: 6.00 Build 0)  -->
<svg version="1.1" id="Layer_1" xmlns="http://www.w3.org/2000/svg" xmlns:xlink="http://www.w3.org/1999/xlink" x="0px" y="0px"
	 viewBox="0 0 200 200" enable-background="new 0 0 200 200" xml:space="preserve">
<text transform="matrix(1 0 0 1 67.3362 154.6967)" fill="#FFFFFF" font-family="'MyriadPro-Regular'" font-size="16">Shopping</text>
<g id="shopping_bag_1_">
	<g id="bag_1_">
		
			<rect x="96.2" y="84.5" transform="matrix(4.993764e-02 0.9988 -0.9988 4.993764e-02 205.3373 -44.8607)" fill="#FFFFFF" width="60.1" height="2"/>
		<path fill="#FFFFFF" d="M136.3,116.5H63.7l3.1-62h58.1l8.3,3.3l0,0.6L136.3,116.5z M65.8,114.5h68.4l-2.9-55.3l-6.7-2.7H68.7
			L65.8,114.5z"/>
	</g>
	<g id="handles_1_">
		<path fill="#FFFFFF" d="M109.7,65.5c-0.5,0-1-0.4-1-0.9c-0.4-8.1-3.4-29.1-12.5-29.1s-12.1,21-12.5,29.1c0,0.6-0.5,1-1,0.9
			c-0.6,0-1-0.5-0.9-1c0.1-1.3,1.7-31,14.5-31s14.4,29.7,14.5,31C110.7,65,110.3,65.5,109.7,65.5C109.7,65.5,109.7,65.5,109.7,65.5z
			"/>
		<path fill="#FFFFFF" d="M115.7,56.5c-0.5,0-1-0.4-1-0.9c-0.4-5.6-2.9-20.1-9.5-20.1S96.1,50,95.7,55.6c0,0.6-0.5,1-1.1,0.9
			c-0.6,0-1-0.5-0.9-1.1c0.1-0.9,1.7-21.9,11.5-21.9s11.4,21,11.5,21.9C116.7,56,116.3,56.5,115.7,56.5
			C115.7,56.5,115.7,56.5,115.7,56.5z"/>
		<circle fill="#FFFFFF" cx="82.7" cy="66" r="3"/>
		<circle fill="#FFFFFF" cx="109.7" cy="66" r="3"/>
	</g>
</g>
</svg>
