<?xml version="1.0" encoding="utf-8"?>
<!-- Generator: Adobe Illustrator 18.1.1, SVG Export Plug-In . SVG Version: 6.00 Build 0)  -->
<svg version="1.1" id="Layer_1" xmlns="http://www.w3.org/2000/svg" xmlns:xlink="http://www.w3.org/1999/xlink" x="0px" y="0px"
	 viewBox="0 0 200 200" enable-background="new 0 0 200 200" xml:space="preserve">
<g>
	<path fill="#FFFFFF" d="M68.4,153c0.6,0.4,1.5,0.7,2.5,0.7c1.4,0,2.3-0.8,2.3-1.8c0-1-0.6-1.6-2-2.1c-1.8-0.6-2.8-1.5-2.8-3.1
		c0-1.7,1.4-2.9,3.5-2.9c1.1,0,1.9,0.3,2.4,0.5l-0.4,1.1c-0.4-0.2-1.1-0.5-2-0.5c-1.5,0-2,0.9-2,1.6c0,1,0.7,1.5,2.1,2.1
		c1.8,0.7,2.8,1.6,2.8,3.2c0,1.7-1.2,3.1-3.8,3.1c-1,0-2.2-0.3-2.8-0.7L68.4,153z"/>
	<path fill="#FFFFFF" d="M76.4,143.3h1.4v4.8h0c0.2-0.4,0.6-0.8,1-1c0.4-0.2,0.9-0.4,1.4-0.4c1,0,2.7,0.6,2.7,3.3v4.6h-1.4v-4.4
		c0-1.2-0.5-2.3-1.8-2.3c-0.9,0-1.6,0.6-1.9,1.4c-0.1,0.2-0.1,0.4-0.1,0.7v4.7h-1.4V143.3z"/>
	<path fill="#FFFFFF" d="M92.3,150.8c0,2.9-2,4.1-3.9,4.1c-2.1,0-3.7-1.5-3.7-4c0-2.6,1.7-4.1,3.8-4.1
		C90.8,146.8,92.3,148.4,92.3,150.8z M86.1,150.8c0,1.7,1,3,2.4,3c1.3,0,2.4-1.3,2.4-3c0-1.3-0.7-3-2.3-3
		C86.9,147.8,86.1,149.4,86.1,150.8z"/>
	<path fill="#FFFFFF" d="M94.1,149.5c0-1,0-1.8-0.1-2.5h1.3l0.1,1.3h0c0.6-0.9,1.5-1.5,2.8-1.5c1.9,0,3.3,1.6,3.3,3.9
		c0,2.8-1.7,4.2-3.5,4.2c-1,0-1.9-0.4-2.4-1.2h0v4.2h-1.4V149.5z M95.4,151.5c0,0.2,0,0.4,0.1,0.6c0.3,1,1.1,1.6,2.1,1.6
		c1.5,0,2.4-1.2,2.4-3c0-1.6-0.8-2.9-2.3-2.9c-1,0-1.9,0.7-2.1,1.7c0,0.2-0.1,0.4-0.1,0.6V151.5z"/>
	<path fill="#FFFFFF" d="M103.2,149.5c0-1,0-1.8-0.1-2.5h1.3l0.1,1.3h0c0.6-0.9,1.5-1.5,2.8-1.5c1.9,0,3.3,1.6,3.3,3.9
		c0,2.8-1.7,4.2-3.5,4.2c-1,0-1.9-0.4-2.4-1.2h0v4.2h-1.4V149.5z M104.6,151.5c0,0.2,0,0.4,0.1,0.6c0.3,1,1.1,1.6,2.1,1.6
		c1.5,0,2.4-1.2,2.4-3c0-1.6-0.8-2.9-2.3-2.9c-1,0-1.9,0.7-2.1,1.7c0,0.2-0.1,0.4-0.1,0.6V151.5z"/>
	<path fill="#FFFFFF" d="M113.8,144.8c0,0.5-0.3,0.9-0.9,0.9c-0.5,0-0.8-0.4-0.8-0.9c0-0.5,0.4-0.9,0.9-0.9
		C113.5,143.9,113.8,144.3,113.8,144.8z M112.3,154.7v-7.7h1.4v7.7H112.3z"/>
	<path fill="#FFFFFF" d="M116,149c0-0.8,0-1.5-0.1-2.1h1.2l0.1,1.3h0c0.4-0.7,1.3-1.5,2.6-1.5c1.1,0,2.7,0.6,2.7,3.3v4.6h-1.4v-4.5
		c0-1.2-0.5-2.3-1.8-2.3c-0.9,0-1.6,0.7-1.9,1.4c-0.1,0.2-0.1,0.4-0.1,0.7v4.7H116V149z"/>
	<path fill="#FFFFFF" d="M131.6,146.9c0,0.6-0.1,1.2-0.1,2.1v4.5c0,1.8-0.4,2.9-1.1,3.5c-0.8,0.7-1.8,0.9-2.8,0.9
		c-0.9,0-2-0.2-2.6-0.6l0.4-1.1c0.5,0.3,1.3,0.6,2.3,0.6c1.4,0,2.5-0.8,2.5-2.7v-0.9h0c-0.4,0.7-1.3,1.3-2.5,1.3
		c-1.9,0-3.3-1.6-3.3-3.8c0-2.6,1.7-4.1,3.5-4.1c1.3,0,2.1,0.7,2.4,1.3h0l0.1-1.2H131.6z M130.1,150c0-0.2,0-0.4-0.1-0.6
		c-0.3-0.8-0.9-1.5-2-1.5c-1.3,0-2.3,1.1-2.3,2.9c0,1.5,0.8,2.8,2.3,2.8c0.9,0,1.6-0.5,2-1.4c0.1-0.2,0.1-0.5,0.1-0.8V150z"/>
</g>
<g id="shopping_bag_1_">
	<g id="bag_1_">
		
			<rect x="96.2" y="84.5" transform="matrix(4.993764e-02 0.9988 -0.9988 4.993764e-02 205.3373 -44.8607)" fill="#FFFFFF" width="60.1" height="2"/>
		<path fill="#FFFFFF" d="M136.3,116.5H63.7l3.1-62h58.1l8.3,3.3l0,0.6L136.3,116.5z M65.8,114.5h68.4l-2.9-55.3l-6.7-2.7H68.7
			L65.8,114.5z"/>
	</g>
	<g id="handles_1_">
		<path fill="#FFFFFF" d="M109.7,65.5c-0.5,0-1-0.4-1-0.9c-0.4-8.1-3.4-29.1-12.5-29.1s-12.1,21-12.5,29.1c0,0.6-0.5,1-1,0.9
			c-0.6,0-1-0.5-0.9-1c0.1-1.3,1.7-31,14.5-31s14.4,29.7,14.5,31C110.7,65,110.3,65.5,109.7,65.5C109.7,65.5,109.7,65.5,109.7,65.5z
			"/>
		<path fill="#FFFFFF" d="M115.7,56.5c-0.5,0-1-0.4-1-0.9c-0.4-5.6-2.9-20.1-9.5-20.1S96.1,50,95.7,55.6c0,0.6-0.5,1-1.1,0.9
			c-0.6,0-1-0.5-0.9-1.1c0.1-0.9,1.7-21.9,11.5-21.9s11.4,21,11.5,21.9C116.7,56,116.3,56.5,115.7,56.5
			C115.7,56.5,115.7,56.5,115.7,56.5z"/>
		<circle fill="#FFFFFF" cx="82.7" cy="66" r="3"/>
		<circle fill="#FFFFFF" cx="109.7" cy="66" r="3"/>
	</g>
</g>
</svg>
