<?xml version="1.0" encoding="utf-8"?>
<!-- Generator: Adobe Illustrator 18.1.1, SVG Export Plug-In . SVG Version: 6.00 Build 0)  -->
<svg version="1.1" id="Layer_1" xmlns="http://www.w3.org/2000/svg" xmlns:xlink="http://www.w3.org/1999/xlink" x="0px" y="0px"
	 viewBox="0 0 200 200" enable-background="new 0 0 200 200" xml:space="preserve">
<g>
	<path fill="#FFFFFF" d="M64,144.1c0.6-0.1,1.6-0.2,2.5-0.2c1.4,0,2.3,0.2,3,0.8c0.6,0.4,0.9,1.1,0.9,1.9c0,1-0.7,2-1.8,2.4v0
		c1,0.3,2.2,1.1,2.2,2.7c0,0.9-0.4,1.6-0.9,2.2c-0.8,0.7-2,1-3.7,1c-1,0-1.7-0.1-2.2-0.1V144.1z M65.4,148.5h1.3
		c1.5,0,2.3-0.8,2.3-1.8c0-1.3-1-1.8-2.4-1.8c-0.6,0-1,0-1.2,0.1V148.5z M65.4,153.6c0.3,0,0.7,0.1,1.2,0.1c1.4,0,2.8-0.5,2.8-2.1
		c0-1.5-1.3-2.1-2.8-2.1h-1.2V153.6z"/>
	<path fill="#FFFFFF" d="M74.2,144.8c0,0.5-0.3,0.9-0.9,0.9c-0.5,0-0.8-0.4-0.8-0.9c0-0.5,0.4-0.9,0.9-0.9
		C73.9,143.9,74.2,144.3,74.2,144.8z M72.6,154.7v-7.7H74v7.7H72.6z"/>
	<path fill="#FFFFFF" d="M77.8,150.5L77.8,150.5c0.2-0.3,0.5-0.6,0.7-0.9l2.3-2.7h1.7l-3,3.2l3.4,4.6h-1.7l-2.7-3.7l-0.7,0.8v2.9
		h-1.4v-11.4h1.4V150.5z"/>
	<path fill="#FFFFFF" d="M84.7,151.1c0,1.9,1.2,2.7,2.7,2.7c1,0,1.6-0.2,2.1-0.4l0.2,1c-0.5,0.2-1.3,0.5-2.6,0.5
		c-2.4,0-3.8-1.6-3.8-3.9s1.4-4.2,3.6-4.2c2.5,0,3.2,2.2,3.2,3.6c0,0.3,0,0.5,0,0.7H84.7z M88.8,150.1c0-0.9-0.4-2.3-2-2.3
		c-1.4,0-2,1.3-2.2,2.3H88.8z"/>
	<path fill="#FFFFFF" d="M95.3,144.1c0.7-0.1,1.7-0.2,2.7-0.2c1.5,0,2.4,0.3,3.1,0.9c0.5,0.5,0.8,1.2,0.8,2c0,1.4-0.9,2.4-2,2.8v0
		c0.8,0.3,1.3,1.1,1.6,2.2c0.4,1.5,0.6,2.5,0.8,3h-1.4c-0.2-0.3-0.4-1.2-0.7-2.6c-0.3-1.5-0.9-2-2.2-2.1h-1.3v4.7h-1.4V144.1z
		 M96.7,149h1.4c1.5,0,2.4-0.8,2.4-2c0-1.4-1-2-2.5-2c-0.7,0-1.2,0.1-1.4,0.1V149z"/>
	<path fill="#FFFFFF" d="M105.6,144.8c0,0.5-0.3,0.9-0.9,0.9c-0.5,0-0.8-0.4-0.8-0.9c0-0.5,0.4-0.9,0.9-0.9
		C105.3,143.9,105.6,144.3,105.6,144.8z M104,154.7v-7.7h1.4v7.7H104z"/>
	<path fill="#FFFFFF" d="M114.5,143.3v9.4c0,0.7,0,1.5,0.1,2h-1.3l-0.1-1.3h0c-0.4,0.9-1.4,1.5-2.6,1.5c-1.9,0-3.3-1.6-3.3-3.9
		c0-2.6,1.6-4.2,3.5-4.2c1.2,0,2,0.6,2.3,1.2h0v-4.6H114.5z M113.1,150.1c0-0.2,0-0.4-0.1-0.6c-0.2-0.9-1-1.6-2-1.6
		c-1.5,0-2.3,1.3-2.3,3c0,1.6,0.8,2.9,2.3,2.9c0.9,0,1.8-0.6,2.1-1.7c0-0.2,0.1-0.4,0.1-0.6V150.1z"/>
	<path fill="#FFFFFF" d="M118.4,144.8c0,0.5-0.3,0.9-0.9,0.9c-0.5,0-0.8-0.4-0.8-0.9c0-0.5,0.4-0.9,0.9-0.9
		C118,143.9,118.4,144.3,118.4,144.8z M116.8,154.7v-7.7h1.4v7.7H116.8z"/>
	<path fill="#FFFFFF" d="M120.6,149c0-0.8,0-1.5-0.1-2.1h1.2l0.1,1.3h0c0.4-0.7,1.3-1.5,2.6-1.5c1.1,0,2.7,0.6,2.7,3.3v4.6h-1.4
		v-4.5c0-1.2-0.5-2.3-1.8-2.3c-0.9,0-1.6,0.7-1.9,1.4c-0.1,0.2-0.1,0.4-0.1,0.7v4.7h-1.4V149z"/>
	<path fill="#FFFFFF" d="M136.1,146.9c0,0.6-0.1,1.2-0.1,2.1v4.5c0,1.8-0.4,2.9-1.1,3.5c-0.8,0.7-1.8,0.9-2.8,0.9
		c-0.9,0-2-0.2-2.6-0.6l0.4-1.1c0.5,0.3,1.3,0.6,2.3,0.6c1.4,0,2.5-0.8,2.5-2.7v-0.9h0c-0.4,0.7-1.3,1.3-2.5,1.3
		c-1.9,0-3.3-1.6-3.3-3.8c0-2.6,1.7-4.1,3.5-4.1c1.3,0,2.1,0.7,2.4,1.3h0l0.1-1.2H136.1z M134.7,150c0-0.2,0-0.4-0.1-0.6
		c-0.3-0.8-0.9-1.5-2-1.5c-1.3,0-2.3,1.1-2.3,2.9c0,1.5,0.8,2.8,2.3,2.8c0.9,0,1.6-0.5,2-1.4c0.1-0.2,0.1-0.5,0.1-0.8V150z"/>
</g>
<g id="bicycle">
	<path fill="#FFFFFF" d="M73,104.5c-11.3,0-20.5-9.2-20.5-20.5S61.7,63.5,73,63.5S93.5,72.7,93.5,84S84.3,104.5,73,104.5z M73,65.5
		c-10.2,0-18.5,8.3-18.5,18.5s8.3,18.5,18.5,18.5S91.5,94.2,91.5,84S83.2,65.5,73,65.5z"/>
	<path fill="#FFFFFF" d="M127,104.5c-11.3,0-20.5-9.2-20.5-20.5s9.2-20.5,20.5-20.5s20.5,9.2,20.5,20.5S138.3,104.5,127,104.5z
		 M127,65.5c-10.2,0-18.5,8.3-18.5,18.5s8.3,18.5,18.5,18.5s18.5-8.3,18.5-18.5S137.2,65.5,127,65.5z"/>
	<path fill="#FFFFFF" d="M73,83.5c-0.2,0-0.3,0-0.4-0.1c-0.5-0.2-0.7-0.8-0.4-1.3l17.3-34.6H76.3C75.7,47.8,74,49.1,74,51
		c0,1.9,1.7,2,2,2c0.6,0,1,0.4,1,1s-0.4,1-1,1c-1.6,0-4-1.1-4-4c0-3.6,3.4-5.3,3.6-5.4c0.1-0.1,0.3-0.1,0.4-0.1h15
		c0.3,0,0.7,0.2,0.9,0.5s0.2,0.7,0,1l-18,36C73.7,83.3,73.4,83.5,73,83.5z"/>
	<path fill="#FFFFFF" d="M100,83.5c-0.1,0-0.2,0-0.2,0c0,0-0.1,0-0.1,0c-0.2-0.1-0.4-0.2-0.5-0.5l0,0l0,0c0,0,0,0,0,0L85.6,57.5
		c-0.2-0.3-0.2-0.7,0-1c0.2-0.3,0.5-0.5,0.9-0.5h25.6l4.2-8.5h-11.9c-0.6,0-1-0.4-1-1s0.4-1,1-1H118c0.3,0,0.7,0.2,0.9,0.5
		s0.2,0.7,0,1l-4.7,9.4c0.1,0.1,0.1,0.1,0.2,0.2L127.9,82c0.2,0.3,0.2,0.7,0,1c-0.2,0.3-0.5,0.5-0.9,0.5H100
		C100,83.5,100,83.5,100,83.5z M101.6,81.5h23.7l-12.2-23L101.6,81.5z M88.2,58L100,80.3L111.1,58H88.2z"/>
	<path fill="#FFFFFF" d="M121,47.5h-3c-0.6,0-1-0.4-1-1s0.4-1,1-1h3c0.6,0,1,0.4,1,1S121.6,47.5,121,47.5z"/>
</g>
</svg>
