<?xml version="1.0" encoding="utf-8"?>
<!-- Generator: Adobe Illustrator 18.1.1, SVG Export Plug-In . SVG Version: 6.00 Build 0)  -->
<svg version="1.1" id="Layer_1" xmlns="http://www.w3.org/2000/svg" xmlns:xlink="http://www.w3.org/1999/xlink" x="0px" y="0px"
	 viewBox="0 0 200 200" enable-background="new 0 0 200 200" xml:space="preserve">
<text transform="matrix(1 0 0 1 62.8645 154.6967)" fill="#FFFFFF" font-family="'MyriadPro-Regular'" font-size="16">Bike Riding</text>
<g id="bicycle">
	<path fill="#FFFFFF" d="M73,104.5c-11.3,0-20.5-9.2-20.5-20.5S61.7,63.5,73,63.5S93.5,72.7,93.5,84S84.3,104.5,73,104.5z M73,65.5
		c-10.2,0-18.5,8.3-18.5,18.5s8.3,18.5,18.5,18.5S91.5,94.2,91.5,84S83.2,65.5,73,65.5z"/>
	<path fill="#FFFFFF" d="M127,104.5c-11.3,0-20.5-9.2-20.5-20.5s9.2-20.5,20.5-20.5s20.5,9.2,20.5,20.5S138.3,104.5,127,104.5z
		 M127,65.5c-10.2,0-18.5,8.3-18.5,18.5s8.3,18.5,18.5,18.5s18.5-8.3,18.5-18.5S137.2,65.5,127,65.5z"/>
	<path fill="#FFFFFF" d="M73,83.5c-0.2,0-0.3,0-0.4-0.1c-0.5-0.2-0.7-0.8-0.4-1.3l17.3-34.6H76.3C75.7,47.8,74,49.1,74,51
		c0,1.9,1.7,2,2,2c0.6,0,1,0.4,1,1s-0.4,1-1,1c-1.6,0-4-1.1-4-4c0-3.6,3.4-5.3,3.6-5.4c0.1-0.1,0.3-0.1,0.4-0.1h15
		c0.3,0,0.7,0.2,0.9,0.5s0.2,0.7,0,1l-18,36C73.7,83.3,73.4,83.5,73,83.5z"/>
	<path fill="#FFFFFF" d="M100,83.5c-0.1,0-0.2,0-0.2,0c0,0-0.1,0-0.1,0c-0.2-0.1-0.4-0.2-0.5-0.5l0,0l0,0c0,0,0,0,0,0L85.6,57.5
		c-0.2-0.3-0.2-0.7,0-1c0.2-0.3,0.5-0.5,0.9-0.5h25.6l4.2-8.5h-11.9c-0.6,0-1-0.4-1-1s0.4-1,1-1H118c0.3,0,0.7,0.2,0.9,0.5
		s0.2,0.7,0,1l-4.7,9.4c0.1,0.1,0.1,0.1,0.2,0.2L127.9,82c0.2,0.3,0.2,0.7,0,1c-0.2,0.3-0.5,0.5-0.9,0.5H100
		C100,83.5,100,83.5,100,83.5z M101.6,81.5h23.7l-12.2-23L101.6,81.5z M88.2,58L100,80.3L111.1,58H88.2z"/>
	<path fill="#FFFFFF" d="M121,47.5h-3c-0.6,0-1-0.4-1-1s0.4-1,1-1h3c0.6,0,1,0.4,1,1S121.6,47.5,121,47.5z"/>
</g>
</svg>
