<?xml version="1.0" encoding="utf-8"?>
<!-- Generator: Adobe Illustrator 18.1.1, SVG Export Plug-In . SVG Version: 6.00 Build 0)  -->
<svg version="1.1" id="Layer_1" xmlns="http://www.w3.org/2000/svg" xmlns:xlink="http://www.w3.org/1999/xlink" x="0px" y="0px"
	 viewBox="0 0 200 200" enable-background="new 0 0 200 200" xml:space="preserve">
<text transform="matrix(1 0 0 1 57.5125 154.696)" fill="#FFFFFF" font-family="'MyriadPro-Regular'" font-size="16">Grab A Drink</text>
<g id="drink">
	<path fill="#FFFFFF" d="M95.5,75.7H94l-27-30l0.7-1.7h54l0.7,1.7L95.5,75.7z M70,46l24.8,27.5L119.5,46H70z"/>
	<path fill="#FFFFFF" d="M112.8,116.5l0-0.1L112.8,116.5h-36l-0.3-1.9l18.3-6.1l18.3,6.1L112.8,116.5z M82.9,114.5h23.7l-11.8-3.9
		L82.9,114.5z"/>
	<path fill="#FFFFFF" d="M94.8,110.5c-0.6,0-1-0.4-1-1V75c0-0.6,0.4-1,1-1s1,0.4,1,1v34.5C95.8,110.1,95.3,110.5,94.8,110.5z"/>
	<path fill="#FFFFFF" d="M108.2,43.5"/>
	<path fill="#FFFFFF" d="M121.8,56.5c-2.6,0-5.1-0.9-7.1-2.5c-0.4-0.3-0.5-1-0.2-1.4c0.3-0.4,1-0.5,1.4-0.2c1.7,1.3,3.7,2,5.9,2
		c5.2,0,9.5-4.3,9.5-9.5s-4.3-9.5-9.5-9.5c-4.7,0-8.7,3.5-9.4,8.1l-0.1,1.4c0,0.6-0.5,1-1.1,0.9c-0.6,0-1-0.5-0.9-1.1l0.1-1.5
		c0.8-5.7,5.7-9.9,11.4-9.9c6.3,0,11.5,5.2,11.5,11.5S128.1,56.5,121.8,56.5z"/>
	<path fill="#FFFFFF" d="M121.7,46c-0.2,0-0.4-0.1-0.6-0.2c-0.4-0.3-0.5-1-0.2-1.4l6-7.5c0.3-0.4,1-0.5,1.4-0.2
		c0.4,0.3,0.5,1,0.2,1.4l-6,7.5C122.3,45.9,122,46,121.7,46z"/>
	<path fill="#FFFFFF" d="M130.8,46h-7.5c-0.6,0-1-0.4-1-1s0.4-1,1-1h7.5c0.6,0,1,0.4,1,1S131.3,46,130.8,46z"/>
	<path fill="#FFFFFF" d="M126.3,55c-0.4,0-0.7-0.2-0.9-0.6l-4.5-9c-0.2-0.5,0-1.1,0.4-1.3c0.5-0.2,1.1,0,1.3,0.4l4.5,9
		c0.2,0.5,0,1.1-0.4,1.3C126.6,55,126.4,55,126.3,55z"/>
	<path fill="#FFFFFF" d="M121.8,46c-0.4,0-0.7-0.2-0.9-0.6l-4.5-9c-0.2-0.5,0-1.1,0.4-1.3c0.5-0.2,1.1,0,1.3,0.4l4.5,9
		c0.2,0.5,0,1.1-0.4,1.3C122.1,46,121.9,46,121.8,46z"/>
</g>
</svg>
