<?xml version="1.0" encoding="utf-8"?>
<!-- Generator: Adobe Illustrator 18.1.1, SVG Export Plug-In . SVG Version: 6.00 Build 0)  -->
<svg version="1.1" id="Layer_1" xmlns="http://www.w3.org/2000/svg" xmlns:xlink="http://www.w3.org/1999/xlink" x="0px" y="0px"
	 viewBox="0 0 200 200" enable-background="new 0 0 200 200" xml:space="preserve">
<g>
	<path fill="#FFFFFF" d="M66.9,154.2c-0.6,0.2-1.9,0.6-3.3,0.6c-1.6,0-3-0.4-4-1.4c-0.9-0.9-1.5-2.3-1.5-4c0-3.2,2.2-5.6,5.8-5.6
		c1.2,0,2.2,0.3,2.7,0.5l-0.3,1.1c-0.6-0.3-1.3-0.5-2.4-0.5c-2.6,0-4.3,1.6-4.3,4.3c0,2.7,1.6,4.4,4.2,4.4c0.9,0,1.5-0.1,1.9-0.3
		v-3.2h-2.2V149h3.6V154.2z"/>
	<path fill="#FFFFFF" d="M69,149.4c0-0.9,0-1.7-0.1-2.4h1.2l0,1.5h0.1c0.4-1,1.2-1.7,2.1-1.7c0.2,0,0.3,0,0.4,0v1.3
		c-0.1,0-0.3,0-0.5,0c-1,0-1.7,0.8-1.9,1.8c0,0.2-0.1,0.4-0.1,0.7v4.1H69V149.4z"/>
	<path fill="#FFFFFF" d="M78.5,154.7l-0.1-1h0c-0.4,0.6-1.3,1.2-2.4,1.2c-1.6,0-2.4-1.1-2.4-2.2c0-1.9,1.7-2.9,4.7-2.9v-0.2
		c0-0.6-0.2-1.8-1.8-1.8c-0.7,0-1.5,0.2-2,0.6l-0.3-0.9c0.6-0.4,1.6-0.7,2.5-0.7c2.4,0,2.9,1.6,2.9,3.2v2.9c0,0.7,0,1.3,0.1,1.9
		H78.5z M78.3,150.7c-1.5,0-3.3,0.2-3.3,1.7c0,0.9,0.6,1.3,1.3,1.3c1,0,1.6-0.6,1.9-1.3c0-0.1,0.1-0.3,0.1-0.4V150.7z"/>
	<path fill="#FFFFFF" d="M81.8,154.7c0-0.5,0.1-1.3,0.1-2v-9.4h1.4v4.9h0c0.5-0.9,1.4-1.4,2.6-1.4c1.9,0,3.3,1.6,3.3,4
		c0,2.8-1.7,4.1-3.5,4.1c-1.1,0-2-0.4-2.6-1.5h0l-0.1,1.3H81.8z M83.3,151.6c0,0.2,0,0.4,0.1,0.5c0.3,1,1.1,1.6,2.1,1.6
		c1.5,0,2.4-1.2,2.4-3c0-1.6-0.8-2.9-2.3-2.9c-1,0-1.9,0.7-2.1,1.7c0,0.2-0.1,0.4-0.1,0.6V151.6z"/>
	<path fill="#FFFFFF" d="M96.2,151.3l-1.1,3.4h-1.4l3.7-10.8H99l3.7,10.8h-1.5l-1.2-3.4H96.2z M99.7,150.2l-1.1-3.1
		c-0.2-0.7-0.4-1.3-0.6-2h0c-0.2,0.6-0.3,1.3-0.5,2l-1.1,3.1H99.7z"/>
	<path fill="#FFFFFF" d="M107.6,144.1c0.8-0.1,1.9-0.2,3-0.2c2,0,3.4,0.5,4.4,1.3c1,0.9,1.5,2.1,1.5,3.9c0,1.8-0.5,3.2-1.6,4.2
		c-1,1-2.7,1.6-4.8,1.6c-1,0-1.8,0-2.5-0.1V144.1z M109,153.6c0.4,0.1,0.9,0.1,1.4,0.1c3,0,4.6-1.7,4.6-4.6c0-2.5-1.4-4.2-4.4-4.2
		c-0.7,0-1.3,0.1-1.6,0.1V153.6z"/>
	<path fill="#FFFFFF" d="M118.2,149.4c0-0.9,0-1.7-0.1-2.4h1.2l0,1.5h0.1c0.4-1,1.2-1.7,2.1-1.7c0.2,0,0.3,0,0.4,0v1.3
		c-0.1,0-0.3,0-0.5,0c-1,0-1.7,0.8-1.9,1.8c0,0.2-0.1,0.4-0.1,0.7v4.1h-1.4V149.4z"/>
	<path fill="#FFFFFF" d="M125.1,144.8c0,0.5-0.3,0.9-0.9,0.9c-0.5,0-0.8-0.4-0.8-0.9c0-0.5,0.4-0.9,0.9-0.9
		C124.8,143.9,125.1,144.3,125.1,144.8z M123.5,154.7v-7.7h1.4v7.7H123.5z"/>
	<path fill="#FFFFFF" d="M127.3,149c0-0.8,0-1.5-0.1-2.1h1.2l0.1,1.3h0c0.4-0.7,1.3-1.5,2.6-1.5c1.1,0,2.7,0.6,2.7,3.3v4.6h-1.4
		v-4.5c0-1.2-0.5-2.3-1.8-2.3c-0.9,0-1.6,0.7-1.9,1.4c-0.1,0.2-0.1,0.4-0.1,0.7v4.7h-1.4V149z"/>
	<path fill="#FFFFFF" d="M137.5,150.5L137.5,150.5c0.2-0.3,0.5-0.6,0.7-0.9l2.3-2.7h1.7l-3,3.2l3.4,4.6h-1.7l-2.7-3.7l-0.7,0.8v2.9
		h-1.4v-11.4h1.4V150.5z"/>
</g>
<g id="drink">
	<path fill="#FFFFFF" d="M95.5,75.7H94l-27-30l0.7-1.7h54l0.7,1.7L95.5,75.7z M70,46l24.8,27.5L119.5,46H70z"/>
	<path fill="#FFFFFF" d="M112.8,116.5l0-0.1L112.8,116.5h-36l-0.3-1.9l18.3-6.1l18.3,6.1L112.8,116.5z M82.9,114.5h23.7l-11.8-3.9
		L82.9,114.5z"/>
	<path fill="#FFFFFF" d="M94.8,110.5c-0.6,0-1-0.4-1-1V75c0-0.6,0.4-1,1-1s1,0.4,1,1v34.5C95.8,110.1,95.3,110.5,94.8,110.5z"/>
	<path fill="#FFFFFF" d="M108.2,43.5"/>
	<path fill="#FFFFFF" d="M121.8,56.5c-2.6,0-5.1-0.9-7.1-2.5c-0.4-0.3-0.5-1-0.2-1.4c0.3-0.4,1-0.5,1.4-0.2c1.7,1.3,3.7,2,5.9,2
		c5.2,0,9.5-4.3,9.5-9.5s-4.3-9.5-9.5-9.5c-4.7,0-8.7,3.5-9.4,8.1l-0.1,1.4c0,0.6-0.5,1-1.1,0.9c-0.6,0-1-0.5-0.9-1.1l0.1-1.5
		c0.8-5.7,5.7-9.9,11.4-9.9c6.3,0,11.5,5.2,11.5,11.5S128.1,56.5,121.8,56.5z"/>
	<path fill="#FFFFFF" d="M121.7,46c-0.2,0-0.4-0.1-0.6-0.2c-0.4-0.3-0.5-1-0.2-1.4l6-7.5c0.3-0.4,1-0.5,1.4-0.2
		c0.4,0.3,0.5,1,0.2,1.4l-6,7.5C122.3,45.9,122,46,121.7,46z"/>
	<path fill="#FFFFFF" d="M130.8,46h-7.5c-0.6,0-1-0.4-1-1s0.4-1,1-1h7.5c0.6,0,1,0.4,1,1S131.3,46,130.8,46z"/>
	<path fill="#FFFFFF" d="M126.3,55c-0.4,0-0.7-0.2-0.9-0.6l-4.5-9c-0.2-0.5,0-1.1,0.4-1.3c0.5-0.2,1.1,0,1.3,0.4l4.5,9
		c0.2,0.5,0,1.1-0.4,1.3C126.6,55,126.4,55,126.3,55z"/>
	<path fill="#FFFFFF" d="M121.8,46c-0.4,0-0.7-0.2-0.9-0.6l-4.5-9c-0.2-0.5,0-1.1,0.4-1.3c0.5-0.2,1.1,0,1.3,0.4l4.5,9
		c0.2,0.5,0,1.1-0.4,1.3C122.1,46,121.9,46,121.8,46z"/>
</g>
</svg>
