<?xml version="1.0" encoding="utf-8"?>
<!-- Generator: Adobe Illustrator 18.1.1, SVG Export Plug-In . SVG Version: 6.00 Build 0)  -->
<svg version="1.1" id="Layer_1" xmlns="http://www.w3.org/2000/svg" xmlns:xlink="http://www.w3.org/1999/xlink" x="0px" y="0px"
	 viewBox="0 0 200 200" enable-background="new 0 0 200 200" xml:space="preserve">
<g>
	<path fill="#FFFFFF" d="M64.2,145.1h-3.3v-1.2h8v1.2h-3.3v9.6h-1.4V145.1z"/>
	<path fill="#FFFFFF" d="M73.3,154.7l-0.1-1h0c-0.4,0.6-1.3,1.2-2.4,1.2c-1.6,0-2.4-1.1-2.4-2.2c0-1.9,1.7-2.9,4.7-2.9v-0.2
		c0-0.6-0.2-1.8-1.8-1.8c-0.7,0-1.5,0.2-2,0.6l-0.3-0.9c0.6-0.4,1.6-0.7,2.5-0.7c2.4,0,2.9,1.6,2.9,3.2v2.9c0,0.7,0,1.3,0.1,1.9
		H73.3z M73.1,150.7c-1.5,0-3.3,0.2-3.3,1.7c0,0.9,0.6,1.3,1.3,1.3c1,0,1.6-0.6,1.9-1.3c0-0.1,0.1-0.3,0.1-0.4V150.7z"/>
	<path fill="#FFFFFF" d="M78.1,150.5L78.1,150.5c0.2-0.3,0.5-0.6,0.7-0.9l2.3-2.7h1.7l-3,3.2l3.4,4.6h-1.7l-2.7-3.7l-0.7,0.8v2.9
		h-1.4v-11.4h1.4V150.5z"/>
	<path fill="#FFFFFF" d="M85,151.1c0,1.9,1.2,2.7,2.7,2.7c1,0,1.6-0.2,2.1-0.4l0.2,1c-0.5,0.2-1.3,0.5-2.6,0.5
		c-2.4,0-3.8-1.6-3.8-3.9s1.4-4.2,3.6-4.2c2.5,0,3.2,2.2,3.2,3.6c0,0.3,0,0.5,0,0.7H85z M89.1,150.1c0-0.9-0.4-2.3-2-2.3
		c-1.4,0-2,1.3-2.2,2.3H89.1z"/>
	<path fill="#FFFFFF" d="M97.4,151.3l-1.1,3.4h-1.4l3.7-10.8h1.7l3.7,10.8h-1.5l-1.2-3.4H97.4z M101,150.2l-1.1-3.1
		c-0.2-0.7-0.4-1.3-0.6-2h0c-0.2,0.6-0.3,1.3-0.5,2l-1.1,3.1H101z"/>
	<path fill="#FFFFFF" d="M110.1,154.7l-2.7-10.8h1.5l1.3,5.5c0.3,1.3,0.6,2.7,0.8,3.7h0c0.2-1.1,0.5-2.4,0.9-3.7l1.4-5.4h1.5
		l1.3,5.5c0.3,1.3,0.6,2.6,0.8,3.7h0c0.2-1.2,0.5-2.4,0.9-3.7l1.4-5.4h1.4l-3.1,10.8H116l-1.4-5.6c-0.3-1.4-0.6-2.4-0.7-3.5h0
		c-0.2,1.1-0.4,2.1-0.8,3.5l-1.5,5.6H110.1z"/>
	<path fill="#FFFFFF" d="M125.5,154.7l-0.1-1h0c-0.4,0.6-1.3,1.2-2.4,1.2c-1.6,0-2.4-1.1-2.4-2.2c0-1.9,1.7-2.9,4.7-2.9v-0.2
		c0-0.6-0.2-1.8-1.8-1.8c-0.7,0-1.5,0.2-2,0.6l-0.3-0.9c0.6-0.4,1.6-0.7,2.5-0.7c2.4,0,2.9,1.6,2.9,3.2v2.9c0,0.7,0,1.3,0.1,1.9
		H125.5z M125.3,150.7c-1.5,0-3.3,0.2-3.3,1.7c0,0.9,0.6,1.3,1.3,1.3c1,0,1.6-0.6,1.9-1.3c0-0.1,0.1-0.3,0.1-0.4V150.7z"/>
	<path fill="#FFFFFF" d="M129,143.3h1.4v11.4H129V143.3z"/>
	<path fill="#FFFFFF" d="M134.1,150.5L134.1,150.5c0.2-0.3,0.5-0.6,0.7-0.9l2.3-2.7h1.7l-3,3.2l3.4,4.6h-1.7l-2.7-3.7l-0.7,0.8v2.9
		h-1.4v-11.4h1.4V150.5z"/>
</g>
<g id="skating">
	<path fill="#FFFFFF" d="M141.1,104.5h-28.3v-4.9l-17,4.9H70c-10.1,0-12.2-4.4-12.2-8.1c0-3.8,3.6-9.6,20.9-15.4
		c14-4.7,22.7-14,24.2-15.7V39.5h33.5v29.1c1,1.5,5.7,8.6,5.7,17c0,8.5-0.9,13.7-1.1,14.5V104.5z M114.7,102.5h24.3l0-2.7
		c0-0.1,1.1-5.4,1.1-14.2c0-8.6-5.5-16-5.5-16.1l-0.2-0.3V41.5h-29.5v24.6l-0.2,0.3c-0.4,0.5-9.4,11.3-25.3,16.5
		c-17.6,5.9-19.5,11.4-19.5,13.5c0,1.5,0,6.1,10.2,6.1h25.5l19.2-5.6V102.5z"/>
	<rect x="103.9" y="53" fill="#FFFFFF" width="31.5" height="2"/>
	<rect x="97" y="74" transform="matrix(0.5547 0.8321 -0.8321 0.5547 108.0131 -51.8243)" fill="#FFFFFF" width="10.8" height="2"/>
	
		<rect x="89.5" y="78.5" transform="matrix(0.5547 0.8321 -0.8321 0.5547 108.4176 -43.5801)" fill="#FFFFFF" width="10.8" height="2"/>
	<rect x="82" y="83" transform="matrix(0.5547 0.8321 -0.8321 0.5547 108.822 -35.3358)" fill="#FFFFFF" width="10.8" height="2"/>
	
		<rect x="74.8" y="86.7" transform="matrix(0.5145 0.8575 -0.8575 0.5145 113.6842 -25.288)" fill="#FFFFFF" width="8.7" height="2"/>
	<g>
		<circle fill="#FFFFFF" cx="105.4" cy="79.5" r="1.5"/>
		<path fill="#FFFFFF" d="M105.4,81.5c-1.1,0-2-0.9-2-2s0.9-2,2-2s2,0.9,2,2S106.5,81.5,105.4,81.5z M105.4,78.5c-0.6,0-1,0.4-1,1
			s0.4,1,1,1s1-0.4,1-1S106,78.5,105.4,78.5z"/>
	</g>
	<g>
		<circle fill="#FFFFFF" cx="97.9" cy="84" r="1.5"/>
		<path fill="#FFFFFF" d="M97.9,86c-1.1,0-2-0.9-2-2s0.9-2,2-2s2,0.9,2,2S99,86,97.9,86z M97.9,83c-0.6,0-1,0.4-1,1s0.4,1,1,1
			s1-0.4,1-1S98.5,83,97.9,83z"/>
	</g>
	<g>
		<circle fill="#FFFFFF" cx="90.4" cy="88.5" r="1.5"/>
		<path fill="#FFFFFF" d="M90.4,90.5c-1.1,0-2-0.9-2-2s0.9-2,2-2s2,0.9,2,2S91.5,90.5,90.4,90.5z M90.4,87.5c-0.6,0-1,0.4-1,1
			s0.4,1,1,1s1-0.4,1-1S91,87.5,90.4,87.5z"/>
	</g>
	<g>
		<circle fill="#FFFFFF" cx="81.4" cy="91.5" r="1.5"/>
		<path fill="#FFFFFF" d="M81.4,93.5c-1.1,0-2-0.9-2-2s0.9-2,2-2s2,0.9,2,2S82.5,93.5,81.4,93.5z M81.4,90.5c-0.6,0-1,0.4-1,1
			s0.4,1,1,1s1-0.4,1-1S82,90.5,81.4,90.5z"/>
	</g>
	<rect x="103.9" y="45.5" fill="#FFFFFF" width="31.5" height="2"/>
	<polygon fill="#FFFFFF" points="142.4,110.5 108.2,110.5 108.2,108.5 99.4,110.5 65.6,110.5 60.5,107.3 58.8,100.1 60.8,99.7 
		62.2,106.1 66.2,108.5 99.3,108.5 110.2,106 110.2,108.5 140,108.5 139.1,103.7 141,103.3 	"/>
</g>
</svg>
