<?xml version="1.0" encoding="utf-8"?>
<!-- Generator: Adobe Illustrator 18.1.1, SVG Export Plug-In . SVG Version: 6.00 Build 0)  -->
<svg version="1.1" id="Layer_1" xmlns="http://www.w3.org/2000/svg" xmlns:xlink="http://www.w3.org/1999/xlink" x="0px" y="0px"
	 viewBox="0 0 200 200" enable-background="new 0 0 200 200" xml:space="preserve">
<text transform="matrix(1 0 0 1 59.8562 154.696)" fill="#FFFFFF" font-family="'MyriadPro-Regular'" font-size="16">Take A Walk</text>
<g id="skating">
	<path fill="#FFFFFF" d="M141.1,104.5h-28.3v-4.9l-17,4.9H70c-10.1,0-12.2-4.4-12.2-8.1c0-3.8,3.6-9.6,20.9-15.4
		c14-4.7,22.7-14,24.2-15.7V39.5h33.5v29.1c1,1.5,5.7,8.6,5.7,17c0,8.5-0.9,13.7-1.1,14.5V104.5z M114.7,102.5h24.3l0-2.7
		c0-0.1,1.1-5.4,1.1-14.2c0-8.6-5.5-16-5.5-16.1l-0.2-0.3V41.5h-29.5v24.6l-0.2,0.3c-0.4,0.5-9.4,11.3-25.3,16.5
		c-17.6,5.9-19.5,11.4-19.5,13.5c0,1.5,0,6.1,10.2,6.1h25.5l19.2-5.6V102.5z"/>
	<rect x="103.9" y="53" fill="#FFFFFF" width="31.5" height="2"/>
	<rect x="97" y="74" transform="matrix(0.5547 0.8321 -0.8321 0.5547 108.0131 -51.8243)" fill="#FFFFFF" width="10.8" height="2"/>
	
		<rect x="89.5" y="78.5" transform="matrix(0.5547 0.8321 -0.8321 0.5547 108.4176 -43.5801)" fill="#FFFFFF" width="10.8" height="2"/>
	<rect x="82" y="83" transform="matrix(0.5547 0.8321 -0.8321 0.5547 108.822 -35.3358)" fill="#FFFFFF" width="10.8" height="2"/>
	
		<rect x="74.8" y="86.7" transform="matrix(0.5145 0.8575 -0.8575 0.5145 113.6842 -25.288)" fill="#FFFFFF" width="8.7" height="2"/>
	<g>
		<circle fill="#FFFFFF" cx="105.4" cy="79.5" r="1.5"/>
		<path fill="#FFFFFF" d="M105.4,81.5c-1.1,0-2-0.9-2-2s0.9-2,2-2s2,0.9,2,2S106.5,81.5,105.4,81.5z M105.4,78.5c-0.6,0-1,0.4-1,1
			s0.4,1,1,1s1-0.4,1-1S106,78.5,105.4,78.5z"/>
	</g>
	<g>
		<circle fill="#FFFFFF" cx="97.9" cy="84" r="1.5"/>
		<path fill="#FFFFFF" d="M97.9,86c-1.1,0-2-0.9-2-2s0.9-2,2-2s2,0.9,2,2S99,86,97.9,86z M97.9,83c-0.6,0-1,0.4-1,1s0.4,1,1,1
			s1-0.4,1-1S98.5,83,97.9,83z"/>
	</g>
	<g>
		<circle fill="#FFFFFF" cx="90.4" cy="88.5" r="1.5"/>
		<path fill="#FFFFFF" d="M90.4,90.5c-1.1,0-2-0.9-2-2s0.9-2,2-2s2,0.9,2,2S91.5,90.5,90.4,90.5z M90.4,87.5c-0.6,0-1,0.4-1,1
			s0.4,1,1,1s1-0.4,1-1S91,87.5,90.4,87.5z"/>
	</g>
	<g>
		<circle fill="#FFFFFF" cx="81.4" cy="91.5" r="1.5"/>
		<path fill="#FFFFFF" d="M81.4,93.5c-1.1,0-2-0.9-2-2s0.9-2,2-2s2,0.9,2,2S82.5,93.5,81.4,93.5z M81.4,90.5c-0.6,0-1,0.4-1,1
			s0.4,1,1,1s1-0.4,1-1S82,90.5,81.4,90.5z"/>
	</g>
	<rect x="103.9" y="45.5" fill="#FFFFFF" width="31.5" height="2"/>
	<polygon fill="#FFFFFF" points="142.4,110.5 108.2,110.5 108.2,108.5 99.4,110.5 65.6,110.5 60.5,107.3 58.8,100.1 60.8,99.7 
		62.2,106.1 66.2,108.5 99.3,108.5 110.2,106 110.2,108.5 140,108.5 139.1,103.7 141,103.3 	"/>
</g>
</svg>
