<?xml version="1.0" encoding="utf-8"?>
<!-- Generator: Adobe Illustrator 18.1.1, SVG Export Plug-In . SVG Version: 6.00 Build 0)  -->
<svg version="1.1" id="Layer_1" xmlns="http://www.w3.org/2000/svg" xmlns:xlink="http://www.w3.org/1999/xlink" x="0px" y="0px"
	 viewBox="0 0 200 200" enable-background="new 0 0 200 200" xml:space="preserve">
<g>
	<path fill="#FFFFFF" d="M47.8,154.7l-3.5-10.8h1.5l1.7,5.3c0.5,1.5,0.9,2.8,1.2,4h0c0.3-1.2,0.8-2.6,1.2-4l1.8-5.3h1.5l-3.9,10.8
		H47.8z"/>
	<path fill="#FFFFFF" d="M55.6,144.8c0,0.5-0.3,0.9-0.9,0.9c-0.5,0-0.8-0.4-0.8-0.9c0-0.5,0.4-0.9,0.9-0.9
		C55.3,143.9,55.6,144.3,55.6,144.8z M54,154.7v-7.7h1.4v7.7H54z"/>
	<path fill="#FFFFFF" d="M57.6,153.3c0.4,0.3,1.2,0.6,1.9,0.6c1,0,1.5-0.5,1.5-1.2c0-0.7-0.4-1-1.4-1.4c-1.4-0.5-2-1.3-2-2.2
		c0-1.2,1-2.3,2.7-2.3c0.8,0,1.5,0.2,1.9,0.5l-0.4,1c-0.3-0.2-0.9-0.4-1.6-0.4c-0.8,0-1.3,0.5-1.3,1.1c0,0.6,0.5,0.9,1.5,1.3
		c1.3,0.5,2,1.2,2,2.3c0,1.4-1.1,2.3-2.9,2.3c-0.8,0-1.6-0.2-2.2-0.5L57.6,153.3z"/>
	<path fill="#FFFFFF" d="M65.7,144.8c0,0.5-0.3,0.9-0.9,0.9c-0.5,0-0.8-0.4-0.8-0.9c0-0.5,0.4-0.9,0.9-0.9
		C65.4,143.9,65.7,144.3,65.7,144.8z M64.1,154.7v-7.7h1.4v7.7H64.1z"/>
	<path fill="#FFFFFF" d="M69.6,144.7v2.2h2v1.1h-2v4.2c0,1,0.3,1.5,1.1,1.5c0.4,0,0.6,0,0.8-0.1l0.1,1.1c-0.3,0.1-0.7,0.2-1.2,0.2
		c-0.7,0-1.2-0.2-1.5-0.6c-0.4-0.4-0.5-1.1-0.5-2V148H67v-1.1h1.2v-1.9L69.6,144.7z"/>
	<path fill="#FFFFFF" d="M78.4,151.3l-1.1,3.4h-1.4l3.7-10.8h1.7l3.7,10.8h-1.5l-1.2-3.4H78.4z M81.9,150.2l-1.1-3.1
		c-0.2-0.7-0.4-1.3-0.6-2h0c-0.2,0.6-0.3,1.3-0.5,2l-1.1,3.1H81.9z"/>
	<path fill="#FFFFFF" d="M89.8,144.1c0.6-0.1,1.6-0.2,2.5-0.2c1.4,0,2.3,0.2,3,0.8c0.6,0.4,0.9,1.1,0.9,1.9c0,1-0.7,2-1.8,2.4v0
		c1,0.3,2.2,1.1,2.2,2.7c0,0.9-0.4,1.6-0.9,2.2c-0.8,0.7-2,1-3.7,1c-1,0-1.7-0.1-2.2-0.1V144.1z M91.2,148.5h1.3
		c1.5,0,2.3-0.8,2.3-1.8c0-1.3-1-1.8-2.4-1.8c-0.6,0-1,0-1.2,0.1V148.5z M91.2,153.6c0.3,0,0.7,0.1,1.2,0.1c1.4,0,2.8-0.5,2.8-2.1
		c0-1.5-1.3-2.1-2.8-2.1h-1.2V153.6z"/>
	<path fill="#FFFFFF" d="M105.5,150.8c0,2.9-2,4.1-3.9,4.1c-2.1,0-3.7-1.5-3.7-4c0-2.6,1.7-4.1,3.8-4.1
		C104,146.8,105.5,148.4,105.5,150.8z M99.3,150.8c0,1.7,1,3,2.4,3c1.3,0,2.4-1.3,2.4-3c0-1.3-0.7-3-2.3-3S99.3,149.4,99.3,150.8z"
		/>
	<path fill="#FFFFFF" d="M114.3,150.8c0,2.9-2,4.1-3.9,4.1c-2.1,0-3.7-1.5-3.7-4c0-2.6,1.7-4.1,3.8-4.1
		C112.8,146.8,114.3,148.4,114.3,150.8z M108.1,150.8c0,1.7,1,3,2.4,3c1.3,0,2.4-1.3,2.4-3c0-1.3-0.7-3-2.3-3
		S108.1,149.4,108.1,150.8z"/>
	<path fill="#FFFFFF" d="M117.4,150.5L117.4,150.5c0.2-0.3,0.5-0.6,0.7-0.9l2.3-2.7h1.7l-3,3.2l3.4,4.6h-1.7l-2.7-3.7l-0.7,0.8v2.9
		H116v-11.4h1.4V150.5z"/>
	<path fill="#FFFFFF" d="M123.4,153.3c0.4,0.3,1.2,0.6,1.9,0.6c1,0,1.5-0.5,1.5-1.2c0-0.7-0.4-1-1.4-1.4c-1.4-0.5-2-1.3-2-2.2
		c0-1.2,1-2.3,2.7-2.3c0.8,0,1.5,0.2,1.9,0.5l-0.4,1c-0.3-0.2-0.9-0.4-1.6-0.4c-0.8,0-1.3,0.5-1.3,1.1c0,0.6,0.5,0.9,1.5,1.3
		c1.3,0.5,2,1.2,2,2.3c0,1.4-1.1,2.3-2.9,2.3c-0.8,0-1.6-0.2-2.2-0.5L123.4,153.3z"/>
	<path fill="#FFFFFF" d="M131.6,144.7v2.2h2v1.1h-2v4.2c0,1,0.3,1.5,1.1,1.5c0.4,0,0.6,0,0.8-0.1l0.1,1.1c-0.3,0.1-0.7,0.2-1.2,0.2
		c-0.7,0-1.2-0.2-1.5-0.6c-0.4-0.4-0.5-1.1-0.5-2V148H129v-1.1h1.2v-1.9L131.6,144.7z"/>
	<path fill="#FFFFFF" d="M142.1,150.8c0,2.9-2,4.1-3.9,4.1c-2.1,0-3.7-1.5-3.7-4c0-2.6,1.7-4.1,3.8-4.1
		C140.6,146.8,142.1,148.4,142.1,150.8z M136,150.8c0,1.7,1,3,2.4,3c1.3,0,2.4-1.3,2.4-3c0-1.3-0.7-3-2.3-3
		C136.7,147.8,136,149.4,136,150.8z"/>
	<path fill="#FFFFFF" d="M143.9,149.4c0-0.9,0-1.7-0.1-2.4h1.2l0,1.5h0.1c0.4-1,1.2-1.7,2.1-1.7c0.2,0,0.3,0,0.4,0v1.3
		c-0.1,0-0.3,0-0.5,0c-1,0-1.7,0.8-1.9,1.8c0,0.2-0.1,0.4-0.1,0.7v4.1h-1.4V149.4z"/>
	<path fill="#FFFFFF" d="M149.7,151.1c0,1.9,1.2,2.7,2.7,2.7c1,0,1.6-0.2,2.1-0.4l0.2,1c-0.5,0.2-1.3,0.5-2.6,0.5
		c-2.4,0-3.8-1.6-3.8-3.9s1.4-4.2,3.6-4.2c2.5,0,3.2,2.2,3.2,3.6c0,0.3,0,0.5,0,0.7H149.7z M153.9,150.1c0-0.9-0.4-2.3-2-2.3
		c-1.4,0-2,1.3-2.2,2.3H153.9z"/>
</g>
<g id="book_2_">
	<g id="content_2_">
		<path fill="#FFFFFF" d="M94,59.4c-0.1,0-0.3,0-0.4-0.1c-5.9-2.6-15.9-3.9-22.8-3.9c-0.6,0-1-0.4-1-1s0.4-1,1-1
			c6.9,0,17.2,1.3,23.6,4.1c0.5,0.2,0.7,0.8,0.5,1.3C94.8,59.1,94.4,59.4,94,59.4z"/>
		<path fill="#FFFFFF" d="M94,66.2c-0.1,0-0.3,0-0.4-0.1c-5.9-2.6-15.9-3.9-22.8-3.9c-0.6,0-1-0.4-1-1s0.4-1,1-1
			c6.9,0,17.2,1.3,23.6,4.1c0.5,0.2,0.7,0.8,0.5,1.3C94.8,66,94.4,66.2,94,66.2z"/>
		<path fill="#FFFFFF" d="M94,73c-0.1,0-0.3,0-0.4-0.1C87.8,70.3,77.7,69,70.8,69c-0.6,0-1-0.4-1-1s0.4-1,1-1
			c6.9,0,17.2,1.3,23.6,4.1c0.5,0.2,0.7,0.8,0.5,1.3C94.8,72.8,94.4,73,94,73z"/>
		<path fill="#FFFFFF" d="M94,79.8c-0.1,0-0.3,0-0.4-0.1c-5.9-2.6-15.9-3.9-22.8-3.9c-0.6,0-1-0.4-1-1s0.4-1,1-1
			c6.9,0,17.2,1.3,23.6,4.1c0.5,0.2,0.7,0.8,0.5,1.3C94.8,79.6,94.4,79.8,94,79.8z"/>
	</g>
	<path fill="#FFFFFF" d="M107.6,109H92.7l-1.5-2.8c-7.1-2.7-18.3-4.1-25.9-4.1c-2.3,0-4.7,0.1-7.2,0.4l-1.1,0.1V46.1h2v54.3
		c2.2-0.2,4.3-0.3,6.3-0.3c7.9,0,19.7,1.5,27,4.4l0.3,0.1l1.3,2.4h12.4l1.3-2.4l0.3-0.1c7.6-3,19.2-4.4,26.7-4.4c0,0,0,0,0,0
		c2.1,0,4.1,0.1,6.3,0.3V46.1h2v56.6l-1.1-0.1c-2.5-0.3-4.9-0.4-7.2-0.4c0,0,0,0,0,0c-7.5,0-18.6,1.4-25.6,4.1L107.6,109z"/>
	<path fill="#FFFFFF" d="M100.1,101.7l-0.5-0.3c-8-4.6-18.8-7.4-29-7.4c-2.1,0-4.3,0.1-6.5,0.4L63,94.5v-53l0.9-0.1
		c2.3-0.3,4.6-0.4,6.8-0.4c10.3,0,21.2,2.7,29.5,7.4c8.4-4.7,18.6-7.4,28.8-7.4c2.2,0,4.4,0.1,6.8,0.4l0.9,0.1v53l-1.1-0.1
		c-2.3-0.3-4.4-0.4-6.6-0.4c-10,0-20,2.6-28.3,7.4L100.1,101.7z M70.7,92c9.9,0,20.4,2.5,28.5,6.8V50.1c-8-4.4-18.5-7.1-28.5-7.1
		c-1.8,0-3.7,0.1-5.7,0.3v49C66.9,92.1,68.8,92,70.7,92z M101.1,50.1v48.7c8.2-4.4,18-6.8,27.8-6.8c1.9,0,3.7,0.1,5.7,0.3v-49
		c-2-0.2-3.8-0.3-5.7-0.3C119.1,43,109.3,45.5,101.1,50.1z"/>
	<polygon fill="#FFFFFF" points="119.6,67 119.6,43.4 121.6,43.4 121.6,63.3 124.7,61.3 127.8,63.3 127.8,43.4 129.8,43.4 129.8,67 
		124.7,63.7 	"/>
</g>
</svg>
