<?xml version="1.0" encoding="utf-8"?>
<!-- Generator: Adobe Illustrator 18.1.1, SVG Export Plug-In . SVG Version: 6.00 Build 0)  -->
<svg version="1.1" id="Layer_1" xmlns="http://www.w3.org/2000/svg" xmlns:xlink="http://www.w3.org/1999/xlink" x="0px" y="0px"
	 viewBox="0 0 200 200" enable-background="new 0 0 200 200" xml:space="preserve">
<text transform="matrix(1 0 0 1 43.9846 154.696)" fill="#FFFFFF" font-family="'MyriadPro-Regular'" font-size="16">Visit A Bookstore</text>
<g id="book_2_">
	<g id="content_2_">
		<path fill="#FFFFFF" d="M94,59.4c-0.1,0-0.3,0-0.4-0.1c-5.9-2.6-15.9-3.9-22.8-3.9c-0.6,0-1-0.4-1-1s0.4-1,1-1
			c6.9,0,17.2,1.3,23.6,4.1c0.5,0.2,0.7,0.8,0.5,1.3C94.8,59.1,94.4,59.4,94,59.4z"/>
		<path fill="#FFFFFF" d="M94,66.2c-0.1,0-0.3,0-0.4-0.1c-5.9-2.6-15.9-3.9-22.8-3.9c-0.6,0-1-0.4-1-1s0.4-1,1-1
			c6.9,0,17.2,1.3,23.6,4.1c0.5,0.2,0.7,0.8,0.5,1.3C94.8,66,94.4,66.2,94,66.2z"/>
		<path fill="#FFFFFF" d="M94,73c-0.1,0-0.3,0-0.4-0.1C87.8,70.3,77.7,69,70.8,69c-0.6,0-1-0.4-1-1s0.4-1,1-1
			c6.9,0,17.2,1.3,23.6,4.1c0.5,0.2,0.7,0.8,0.5,1.3C94.8,72.8,94.4,73,94,73z"/>
		<path fill="#FFFFFF" d="M94,79.8c-0.1,0-0.3,0-0.4-0.1c-5.9-2.6-15.9-3.9-22.8-3.9c-0.6,0-1-0.4-1-1s0.4-1,1-1
			c6.9,0,17.2,1.3,23.6,4.1c0.5,0.2,0.7,0.8,0.5,1.3C94.8,79.6,94.4,79.8,94,79.8z"/>
	</g>
	<path fill="#FFFFFF" d="M107.6,109H92.7l-1.5-2.8c-7.1-2.7-18.3-4.1-25.9-4.1c-2.3,0-4.7,0.1-7.2,0.4l-1.1,0.1V46.1h2v54.3
		c2.2-0.2,4.3-0.3,6.3-0.3c7.9,0,19.7,1.5,27,4.4l0.3,0.1l1.3,2.4h12.4l1.3-2.4l0.3-0.1c7.6-3,19.2-4.4,26.7-4.4c0,0,0,0,0,0
		c2.1,0,4.1,0.1,6.3,0.3V46.1h2v56.6l-1.1-0.1c-2.5-0.3-4.9-0.4-7.2-0.4c0,0,0,0,0,0c-7.5,0-18.6,1.4-25.6,4.1L107.6,109z"/>
	<path fill="#FFFFFF" d="M100.1,101.7l-0.5-0.3c-8-4.6-18.8-7.4-29-7.4c-2.1,0-4.3,0.1-6.5,0.4L63,94.5v-53l0.9-0.1
		c2.3-0.3,4.6-0.4,6.8-0.4c10.3,0,21.2,2.7,29.5,7.4c8.4-4.7,18.6-7.4,28.8-7.4c2.2,0,4.4,0.1,6.8,0.4l0.9,0.1v53l-1.1-0.1
		c-2.3-0.3-4.4-0.4-6.6-0.4c-10,0-20,2.6-28.3,7.4L100.1,101.7z M70.7,92c9.9,0,20.4,2.5,28.5,6.8V50.1c-8-4.4-18.5-7.1-28.5-7.1
		c-1.8,0-3.7,0.1-5.7,0.3v49C66.9,92.1,68.8,92,70.7,92z M101.1,50.1v48.7c8.2-4.4,18-6.8,27.8-6.8c1.9,0,3.7,0.1,5.7,0.3v-49
		c-2-0.2-3.8-0.3-5.7-0.3C119.1,43,109.3,45.5,101.1,50.1z"/>
	<polygon fill="#FFFFFF" points="119.6,67 119.6,43.4 121.6,43.4 121.6,63.3 124.7,61.3 127.8,63.3 127.8,43.4 129.8,43.4 129.8,67 
		124.7,63.7 	"/>
</g>
</svg>
