<?xml version="1.0" encoding="utf-8"?>
<!-- Generator: Adobe Illustrator 18.1.1, SVG Export Plug-In . SVG Version: 6.00 Build 0)  -->
<svg version="1.1" id="Layer_1" xmlns="http://www.w3.org/2000/svg" xmlns:xlink="http://www.w3.org/1999/xlink" x="0px" y="0px"
	 viewBox="0 0 200 200" enable-background="new 0 0 200 200" xml:space="preserve">
<text transform="matrix(1 0 0 1 48.5925 154.6961)" fill="#FFFFFF" font-family="'MyriadPro-Regular'" font-size="16">Visit A Museum</text>
<g>
	<path fill="#FFFFFF" d="M143,71H56v-4.7l43.5-25.1L143,66.3V71z M58,69h83v-1.5L99.5,43.6L58,67.5V69z"/>
	<path fill="#FFFFFF" d="M100.2,62c-3.4,0-6.2-2.8-6.2-6.2s2.8-6.2,6.2-6.2s6.2,2.8,6.2,6.2S103.6,62,100.2,62z M100.2,51.6
		c-2.3,0-4.2,1.9-4.2,4.2s1.9,4.2,4.2,4.2s4.2-1.9,4.2-4.2S102.5,51.6,100.2,51.6z"/>
	<path fill="#FFFFFF" d="M143,109H56v-8h87V109z M58,107h83v-4H58V107z"/>
	<path fill="#FFFFFF" d="M138,103H61v-8h77V103z M63,101h73v-4H63V101z"/>
	<path fill="#FFFFFF" d="M69,97h-8V69h8V97z M63,95h4V71h-4V95z"/>
	<path fill="#FFFFFF" d="M91,97h-8V69h8V97z M85,95h4V71h-4V95z"/>
	<path fill="#FFFFFF" d="M116,97h-8V69h8V97z M110,95h4V71h-4V95z"/>
	<path fill="#FFFFFF" d="M127,97h-8V69h8V97z M121,95h4V71h-4V95z"/>
	<path fill="#FFFFFF" d="M80,97h-8V69h8V97z M74,95h4V71h-4V95z"/>
	<path fill="#FFFFFF" d="M138,97h-8V69h8V97z M132,95h4V71h-4V95z"/>
</g>
</svg>
