<?xml version="1.0" encoding="utf-8"?>
<!-- Generator: Adobe Illustrator 18.1.1, SVG Export Plug-In . SVG Version: 6.00 Build 0)  -->
<svg version="1.1" id="Layer_1" xmlns="http://www.w3.org/2000/svg" xmlns:xlink="http://www.w3.org/1999/xlink" x="0px" y="0px"
	 viewBox="0 0 200 200" enable-background="new 0 0 200 200" xml:space="preserve">
<g>
	<path fill="#FFFFFF" d="M52.3,154.7l-3.5-10.8h1.5l1.7,5.3c0.5,1.5,0.9,2.8,1.2,4h0c0.3-1.2,0.8-2.6,1.2-4l1.8-5.3h1.5l-3.9,10.8
		H52.3z"/>
	<path fill="#FFFFFF" d="M60.1,144.8c0,0.5-0.3,0.9-0.9,0.9c-0.5,0-0.8-0.4-0.8-0.9c0-0.5,0.4-0.9,0.9-0.9
		C59.8,143.9,60.1,144.3,60.1,144.8z M58.5,154.7v-7.7h1.4v7.7H58.5z"/>
	<path fill="#FFFFFF" d="M62.1,153.3c0.4,0.3,1.2,0.6,1.9,0.6c1,0,1.5-0.5,1.5-1.2c0-0.7-0.4-1-1.4-1.4c-1.4-0.5-2-1.3-2-2.2
		c0-1.2,1-2.3,2.7-2.3c0.8,0,1.5,0.2,1.9,0.5l-0.4,1c-0.3-0.2-0.9-0.4-1.6-0.4c-0.8,0-1.3,0.5-1.3,1.1c0,0.6,0.5,0.9,1.5,1.3
		c1.3,0.5,2,1.2,2,2.3c0,1.4-1.1,2.3-2.9,2.3c-0.8,0-1.6-0.2-2.2-0.5L62.1,153.3z"/>
	<path fill="#FFFFFF" d="M70.2,144.8c0,0.5-0.3,0.9-0.9,0.9c-0.5,0-0.8-0.4-0.8-0.9c0-0.5,0.4-0.9,0.9-0.9
		C69.9,143.9,70.2,144.3,70.2,144.8z M68.6,154.7v-7.7H70v7.7H68.6z"/>
	<path fill="#FFFFFF" d="M74.1,144.7v2.2h2v1.1h-2v4.2c0,1,0.3,1.5,1.1,1.5c0.4,0,0.6,0,0.8-0.1l0.1,1.1c-0.3,0.1-0.7,0.2-1.2,0.2
		c-0.7,0-1.2-0.2-1.5-0.6c-0.4-0.4-0.5-1.1-0.5-2V148h-1.2v-1.1h1.2v-1.9L74.1,144.7z"/>
	<path fill="#FFFFFF" d="M82.8,151.3l-1.1,3.4h-1.4l3.7-10.8h1.7l3.7,10.8h-1.5l-1.2-3.4H82.8z M86.4,150.2l-1.1-3.1
		c-0.2-0.7-0.4-1.3-0.6-2h0c-0.2,0.6-0.3,1.3-0.5,2l-1.1,3.1H86.4z"/>
	<path fill="#FFFFFF" d="M103.4,150c-0.1-1.5-0.2-3.3-0.2-4.7h0c-0.4,1.3-0.8,2.6-1.4,4.1l-1.9,5.2h-1.1l-1.7-5.1
		c-0.5-1.5-0.9-2.9-1.2-4.2h0c0,1.3-0.1,3.2-0.2,4.8l-0.3,4.6H94l0.8-10.8h1.8l1.8,5.2c0.4,1.3,0.8,2.5,1.1,3.6h0
		c0.3-1.1,0.7-2.3,1.1-3.6l1.9-5.2h1.8l0.7,10.8h-1.4L103.4,150z"/>
	<path fill="#FFFFFF" d="M113.6,152.6c0,0.8,0,1.5,0.1,2.1h-1.2l-0.1-1.3h0c-0.4,0.6-1.2,1.4-2.6,1.4c-1.2,0-2.7-0.7-2.7-3.4v-4.5
		h1.4v4.3c0,1.5,0.4,2.5,1.7,2.5c0.9,0,1.6-0.7,1.9-1.3c0.1-0.2,0.1-0.5,0.1-0.7v-4.8h1.4V152.6z"/>
	<path fill="#FFFFFF" d="M115.8,153.3c0.4,0.3,1.2,0.6,1.9,0.6c1,0,1.5-0.5,1.5-1.2c0-0.7-0.4-1-1.4-1.4c-1.4-0.5-2-1.3-2-2.2
		c0-1.2,1-2.3,2.7-2.3c0.8,0,1.5,0.2,1.9,0.5l-0.4,1c-0.3-0.2-0.9-0.4-1.6-0.4c-0.8,0-1.3,0.5-1.3,1.1c0,0.6,0.5,0.9,1.5,1.3
		c1.3,0.5,2,1.2,2,2.3c0,1.4-1.1,2.3-2.9,2.3c-0.8,0-1.6-0.2-2.2-0.5L115.8,153.3z"/>
	<path fill="#FFFFFF" d="M123.1,151.1c0,1.9,1.2,2.7,2.7,2.7c1,0,1.6-0.2,2.1-0.4l0.2,1c-0.5,0.2-1.3,0.5-2.6,0.5
		c-2.4,0-3.8-1.6-3.8-3.9s1.4-4.2,3.6-4.2c2.5,0,3.2,2.2,3.2,3.6c0,0.3,0,0.5,0,0.7H123.1z M127.2,150.1c0-0.9-0.4-2.3-2-2.3
		c-1.4,0-2,1.3-2.2,2.3H127.2z"/>
	<path fill="#FFFFFF" d="M136.8,152.6c0,0.8,0,1.5,0.1,2.1h-1.2l-0.1-1.3h0c-0.4,0.6-1.2,1.4-2.6,1.4c-1.2,0-2.7-0.7-2.7-3.4v-4.5
		h1.4v4.3c0,1.5,0.4,2.5,1.7,2.5c0.9,0,1.6-0.7,1.9-1.3c0.1-0.2,0.1-0.5,0.1-0.7v-4.8h1.4V152.6z"/>
	<path fill="#FFFFFF" d="M139.1,149c0-0.8,0-1.5-0.1-2.1h1.2l0.1,1.2h0c0.4-0.7,1.2-1.4,2.4-1.4c1.1,0,1.9,0.6,2.2,1.6h0
		c0.2-0.4,0.5-0.8,0.9-1c0.5-0.4,1-0.5,1.7-0.5c1,0,2.5,0.7,2.5,3.4v4.6h-1.4v-4.4c0-1.5-0.5-2.4-1.7-2.4c-0.8,0-1.4,0.6-1.7,1.3
		c-0.1,0.2-0.1,0.4-0.1,0.7v4.8H144v-4.6c0-1.2-0.5-2.1-1.6-2.1c-0.9,0-1.5,0.7-1.7,1.4c-0.1,0.2-0.1,0.4-0.1,0.7v4.7h-1.4V149z"/>
</g>
<g>
	<path fill="#FFFFFF" d="M143,71H56v-4.7l43.5-25.1L143,66.3V71z M58,69h83v-1.5L99.5,43.6L58,67.5V69z"/>
	<path fill="#FFFFFF" d="M100.2,62c-3.4,0-6.2-2.8-6.2-6.2s2.8-6.2,6.2-6.2s6.2,2.8,6.2,6.2S103.6,62,100.2,62z M100.2,51.6
		c-2.3,0-4.2,1.9-4.2,4.2s1.9,4.2,4.2,4.2s4.2-1.9,4.2-4.2S102.5,51.6,100.2,51.6z"/>
	<path fill="#FFFFFF" d="M143,109H56v-8h87V109z M58,107h83v-4H58V107z"/>
	<path fill="#FFFFFF" d="M138,103H61v-8h77V103z M63,101h73v-4H63V101z"/>
	<path fill="#FFFFFF" d="M69,97h-8V69h8V97z M63,95h4V71h-4V95z"/>
	<path fill="#FFFFFF" d="M91,97h-8V69h8V97z M85,95h4V71h-4V95z"/>
	<path fill="#FFFFFF" d="M116,97h-8V69h8V97z M110,95h4V71h-4V95z"/>
	<path fill="#FFFFFF" d="M127,97h-8V69h8V97z M121,95h4V71h-4V95z"/>
	<path fill="#FFFFFF" d="M80,97h-8V69h8V97z M74,95h4V71h-4V95z"/>
	<path fill="#FFFFFF" d="M138,97h-8V69h8V97z M132,95h4V71h-4V95z"/>
</g>
</svg>
