<?xml version="1.0" encoding="utf-8"?>
<!-- Generator: Adobe Illustrator 18.1.1, SVG Export Plug-In . SVG Version: 6.00 Build 0)  -->
<svg version="1.1" id="Layer_1" xmlns="http://www.w3.org/2000/svg" xmlns:xlink="http://www.w3.org/1999/xlink" x="0px" y="0px"
	 viewBox="0 0 200 200" enable-background="new 0 0 200 200" xml:space="preserve">
<g>
	<path fill="#FFFFFF" d="M41.6,144c0.7-0.1,1.6-0.2,2.7-0.2c1.4,0,2.4,0.3,3,0.9c0.6,0.5,0.9,1.3,0.9,2.3c0,1-0.3,1.7-0.8,2.3
		c-0.7,0.8-1.9,1.2-3.3,1.2c-0.4,0-0.8,0-1.1-0.1v4.3h-1.4V144z M43,149.2c0.3,0.1,0.7,0.1,1.2,0.1c1.7,0,2.7-0.8,2.7-2.3
		c0-1.4-1-2.1-2.5-2.1c-0.6,0-1.1,0-1.3,0.1V149.2z"/>
	<path fill="#FFFFFF" d="M49.9,143.3h1.4v11.4h-1.4V143.3z"/>
	<path fill="#FFFFFF" d="M58,154.7l-0.1-1h0c-0.4,0.6-1.3,1.2-2.4,1.2c-1.6,0-2.4-1.1-2.4-2.2c0-1.9,1.7-2.9,4.7-2.9v-0.2
		c0-0.6-0.2-1.8-1.8-1.8c-0.7,0-1.5,0.2-2,0.6l-0.3-0.9c0.6-0.4,1.6-0.7,2.5-0.7c2.4,0,2.9,1.6,2.9,3.2v2.9c0,0.7,0,1.3,0.1,1.9H58z
		 M57.8,150.7c-1.5,0-3.3,0.2-3.3,1.7c0,0.9,0.6,1.3,1.3,1.3c1,0,1.6-0.6,1.9-1.3c0-0.1,0.1-0.3,0.1-0.4V150.7z"/>
	<path fill="#FFFFFF" d="M61.8,146.9l1.7,4.6c0.2,0.5,0.4,1.1,0.5,1.6h0c0.1-0.5,0.3-1.1,0.5-1.6l1.5-4.5h1.5l-2.1,5.5
		c-1,2.7-1.7,4-2.7,4.9c-0.7,0.6-1.4,0.8-1.7,0.9l-0.4-1.2c0.4-0.1,0.8-0.3,1.2-0.7c0.4-0.3,0.9-0.8,1.2-1.6
		c0.1-0.1,0.1-0.3,0.1-0.3s0-0.2-0.1-0.4l-2.9-7.1H61.8z"/>
	<path fill="#FFFFFF" d="M72.3,144.1c0.6-0.1,1.6-0.2,2.5-0.2c1.4,0,2.3,0.2,3,0.8c0.6,0.4,0.9,1.1,0.9,1.9c0,1-0.7,2-1.8,2.4v0
		c1,0.3,2.2,1.1,2.2,2.7c0,0.9-0.4,1.6-0.9,2.2c-0.8,0.7-2,1-3.7,1c-1,0-1.7-0.1-2.2-0.1V144.1z M73.7,148.5h1.3
		c1.5,0,2.3-0.8,2.3-1.8c0-1.3-1-1.8-2.4-1.8c-0.6,0-1,0-1.2,0.1V148.5z M73.7,153.6c0.3,0,0.7,0.1,1.2,0.1c1.4,0,2.8-0.5,2.8-2.1
		c0-1.5-1.3-2.1-2.8-2.1h-1.2V153.6z"/>
	<path fill="#FFFFFF" d="M88,150.8c0,2.9-2,4.1-3.9,4.1c-2.1,0-3.7-1.5-3.7-4c0-2.6,1.7-4.1,3.8-4.1C86.5,146.8,88,148.4,88,150.8z
		 M81.8,150.8c0,1.7,1,3,2.4,3c1.3,0,2.4-1.3,2.4-3c0-1.3-0.7-3-2.3-3C82.6,147.8,81.8,149.4,81.8,150.8z"/>
	<path fill="#FFFFFF" d="M94,154.7l-0.1-1h0c-0.4,0.6-1.3,1.2-2.4,1.2c-1.6,0-2.4-1.1-2.4-2.2c0-1.9,1.7-2.9,4.7-2.9v-0.2
		c0-0.6-0.2-1.8-1.8-1.8c-0.7,0-1.5,0.2-2,0.6l-0.3-0.9c0.6-0.4,1.6-0.7,2.5-0.7c2.4,0,2.9,1.6,2.9,3.2v2.9c0,0.7,0,1.3,0.1,1.9H94z
		 M93.8,150.7c-1.5,0-3.3,0.2-3.3,1.7c0,0.9,0.6,1.3,1.3,1.3c1,0,1.6-0.6,1.9-1.3c0-0.1,0.1-0.3,0.1-0.4V150.7z"/>
	<path fill="#FFFFFF" d="M97.5,149.4c0-0.9,0-1.7-0.1-2.4h1.2l0,1.5h0.1c0.4-1,1.2-1.7,2.1-1.7c0.2,0,0.3,0,0.4,0v1.3
		c-0.1,0-0.3,0-0.5,0c-1,0-1.7,0.8-1.9,1.8c0,0.2-0.1,0.4-0.1,0.7v4.1h-1.4V149.4z"/>
	<path fill="#FFFFFF" d="M109.2,143.3v9.4c0,0.7,0,1.5,0.1,2H108l-0.1-1.3h0c-0.4,0.9-1.4,1.5-2.6,1.5c-1.9,0-3.3-1.6-3.3-3.9
		c0-2.6,1.6-4.2,3.5-4.2c1.2,0,2,0.6,2.3,1.2h0v-4.6H109.2z M107.8,150.1c0-0.2,0-0.4-0.1-0.6c-0.2-0.9-1-1.6-2-1.6
		c-1.5,0-2.3,1.3-2.3,3c0,1.6,0.8,2.9,2.3,2.9c0.9,0,1.8-0.6,2.1-1.7c0-0.2,0.1-0.4,0.1-0.6V150.1z"/>
	<path fill="#FFFFFF" d="M123.2,154.2c-0.6,0.2-1.9,0.6-3.3,0.6c-1.6,0-3-0.4-4-1.4c-0.9-0.9-1.5-2.3-1.5-4c0-3.2,2.2-5.6,5.8-5.6
		c1.2,0,2.2,0.3,2.7,0.5l-0.3,1.1c-0.6-0.3-1.3-0.5-2.4-0.5c-2.6,0-4.3,1.6-4.3,4.3c0,2.7,1.6,4.4,4.2,4.4c0.9,0,1.5-0.1,1.9-0.3
		v-3.2h-2.2V149h3.6V154.2z"/>
	<path fill="#FFFFFF" d="M129.7,154.7l-0.1-1h0c-0.4,0.6-1.3,1.2-2.4,1.2c-1.6,0-2.4-1.1-2.4-2.2c0-1.9,1.7-2.9,4.7-2.9v-0.2
		c0-0.6-0.2-1.8-1.8-1.8c-0.7,0-1.5,0.2-2,0.6l-0.3-0.9c0.6-0.4,1.6-0.7,2.5-0.7c2.4,0,2.9,1.6,2.9,3.2v2.9c0,0.7,0,1.3,0.1,1.9
		H129.7z M129.5,150.7c-1.5,0-3.3,0.2-3.3,1.7c0,0.9,0.6,1.3,1.3,1.3c1,0,1.6-0.6,1.9-1.3c0-0.1,0.1-0.3,0.1-0.4V150.7z"/>
	<path fill="#FFFFFF" d="M133.1,149c0-0.8,0-1.5-0.1-2.1h1.2l0.1,1.2h0c0.4-0.7,1.2-1.4,2.4-1.4c1.1,0,1.9,0.6,2.2,1.6h0
		c0.2-0.4,0.5-0.8,0.9-1c0.5-0.4,1-0.5,1.7-0.5c1,0,2.5,0.7,2.5,3.4v4.6h-1.4v-4.4c0-1.5-0.5-2.4-1.7-2.4c-0.8,0-1.4,0.6-1.7,1.3
		c-0.1,0.2-0.1,0.4-0.1,0.7v4.8H138v-4.6c0-1.2-0.5-2.1-1.6-2.1c-0.9,0-1.5,0.7-1.7,1.4c-0.1,0.2-0.1,0.4-0.1,0.7v4.7h-1.4V149z"/>
	<path fill="#FFFFFF" d="M147.3,151.1c0,1.9,1.2,2.7,2.7,2.7c1,0,1.6-0.2,2.1-0.4l0.2,1c-0.5,0.2-1.3,0.5-2.6,0.5
		c-2.4,0-3.8-1.6-3.8-3.9s1.4-4.2,3.6-4.2c2.5,0,3.2,2.2,3.2,3.6c0,0.3,0,0.5,0,0.7H147.3z M151.4,150.1c0-0.9-0.4-2.3-2-2.3
		c-1.4,0-2,1.3-2.2,2.3H151.4z"/>
	<path fill="#FFFFFF" d="M154.3,153.3c0.4,0.3,1.2,0.6,1.9,0.6c1,0,1.5-0.5,1.5-1.2c0-0.7-0.4-1-1.4-1.4c-1.4-0.5-2-1.3-2-2.2
		c0-1.2,1-2.3,2.7-2.3c0.8,0,1.5,0.2,1.9,0.5l-0.4,1c-0.3-0.2-0.9-0.4-1.6-0.4c-0.8,0-1.3,0.5-1.3,1.1c0,0.6,0.5,0.9,1.5,1.3
		c1.3,0.5,2,1.2,2,2.3c0,1.4-1.1,2.3-2.9,2.3c-0.8,0-1.6-0.2-2.2-0.5L154.3,153.3z"/>
</g>
<g id="horse">
	<path fill="#FFFFFF" d="M116.5,90.2H84.4l-5-8.4l0.1-0.4c0.2-0.5,4.3-12.4,23.2-25c-1.8-0.2-3.3-0.8-4.6-1.3
		c-1.1-0.5-2.1-0.8-2.9-0.8c-2.8,0-8.5,1.5-8.5,1.5l-0.4,0.1L81,52.3v-4.2l13.6-6.2l3.3-4.5l8.6-2.9v-5.1l1.3,0.3
		c0.2,0,17.2,4.9,17.2,25c0,7.9-2.8,14.5-5.1,19.8c-1.2,2.9-2.3,5.4-2.6,7.3c-0.2,1,0.1,4.9,0.2,7.3l0.1,1.1H116.5z M85.6,88.2h29.9
		c-0.1-1.9-0.3-5.4-0.1-6.6c0.3-2.2,1.5-4.8,2.7-7.8c2.2-5.1,5-11.5,5-19c0-15.6-10.7-21.1-14.5-22.6V36l-9.4,3.1l-3.2,4.5L83,49.4
		v1.8l3.7,2.5c1.4-0.4,6-1.4,8.6-1.4c1.2,0,2.4,0.5,3.7,1c2.2,0.9,4.7,1.9,8,0.6c6.4-2.6,5.5-6.1,5.4-6.3l1.9-0.6
		c0.1,0.2,1.7,5.4-6.5,8.7c-19.5,11.8-25.2,23.7-26.1,26L85.6,88.2z"/>
	<path fill="#FFFFFF" d="M120.5,102.2h-41v-14h41V102.2z M81.5,100.2h37v-10h-37V100.2z"/>
	<path fill="#FFFFFF" d="M118,115.8H82c-0.3,0-0.6-0.2-0.8-0.4l-6-9c-0.3-0.4-0.2-0.9,0.1-1.3l4.5-4.5l1.4,1.4l-3.9,3.9l5.2,7.9
		h34.9l5.2-7.9l-3.9-3.9l1.4-1.4l4.5,4.5c0.3,0.3,0.4,0.9,0.1,1.3l-6,9C118.6,115.6,118.3,115.8,118,115.8z"/>
	<polygon fill="#FFFFFF" points="119,120.2 81,120.2 81,114.8 83,114.8 83,118.2 117,118.2 117,114.8 119,114.8 	"/>
	<rect x="77.5" y="104.8" fill="#FFFFFF" width="45" height="2"/>
</g>
</svg>
