<?xml version="1.0" encoding="utf-8"?>
<!-- Generator: Adobe Illustrator 18.1.1, SVG Export Plug-In . SVG Version: 6.00 Build 0)  -->
<svg version="1.1" id="Layer_1" xmlns="http://www.w3.org/2000/svg" xmlns:xlink="http://www.w3.org/1999/xlink" x="0px" y="0px"
	 viewBox="0 0 200 200" enable-background="new 0 0 200 200" xml:space="preserve">
<text transform="matrix(1 0 0 1 40.2566 154.6964)" fill="#FFFFFF" font-family="'MyriadPro-Regular'" font-size="16">Play Board Games</text>
<g id="horse">
	<path fill="#FFFFFF" d="M116.5,90.2H84.4l-5-8.4l0.1-0.4c0.2-0.5,4.3-12.4,23.2-25c-1.8-0.2-3.3-0.8-4.6-1.3
		c-1.1-0.5-2.1-0.8-2.9-0.8c-2.8,0-8.5,1.5-8.5,1.5l-0.4,0.1L81,52.3v-4.2l13.6-6.2l3.3-4.5l8.6-2.9v-5.1l1.3,0.3
		c0.2,0,17.2,4.9,17.2,25c0,7.9-2.8,14.5-5.1,19.8c-1.2,2.9-2.3,5.4-2.6,7.3c-0.2,1,0.1,4.9,0.2,7.3l0.1,1.1H116.5z M85.6,88.2h29.9
		c-0.1-1.9-0.3-5.4-0.1-6.6c0.3-2.2,1.5-4.8,2.7-7.8c2.2-5.1,5-11.5,5-19c0-15.6-10.7-21.1-14.5-22.6V36l-9.4,3.1l-3.2,4.5L83,49.4
		v1.8l3.7,2.5c1.4-0.4,6-1.4,8.6-1.4c1.2,0,2.4,0.5,3.7,1c2.2,0.9,4.7,1.9,8,0.6c6.4-2.6,5.5-6.1,5.4-6.3l1.9-0.6
		c0.1,0.2,1.7,5.4-6.5,8.7c-19.5,11.8-25.2,23.7-26.1,26L85.6,88.2z"/>
	<path fill="#FFFFFF" d="M120.5,102.2h-41v-14h41V102.2z M81.5,100.2h37v-10h-37V100.2z"/>
	<path fill="#FFFFFF" d="M118,115.8H82c-0.3,0-0.6-0.2-0.8-0.4l-6-9c-0.3-0.4-0.2-0.9,0.1-1.3l4.5-4.5l1.4,1.4l-3.9,3.9l5.2,7.9
		h34.9l5.2-7.9l-3.9-3.9l1.4-1.4l4.5,4.5c0.3,0.3,0.4,0.9,0.1,1.3l-6,9C118.6,115.6,118.3,115.8,118,115.8z"/>
	<polygon fill="#FFFFFF" points="119,120.2 81,120.2 81,114.8 83,114.8 83,118.2 117,118.2 117,114.8 119,114.8 	"/>
	<rect x="77.5" y="104.8" fill="#FFFFFF" width="45" height="2"/>
</g>
</svg>
