<?xml version="1.0" encoding="utf-8"?>
<!-- Generator: Adobe Illustrator 18.1.1, SVG Export Plug-In . SVG Version: 6.00 Build 0)  -->
<svg version="1.1" id="Layer_1" xmlns="http://www.w3.org/2000/svg" xmlns:xlink="http://www.w3.org/1999/xlink" x="0px" y="0px"
	 viewBox="0 0 200 200" enable-background="new 0 0 200 200" xml:space="preserve">
<g>
	<path fill="#FFFFFF" d="M48.8,154.2c-0.6,0.2-1.9,0.6-3.3,0.6c-1.6,0-3-0.4-4-1.4c-0.9-0.9-1.5-2.3-1.5-4c0-3.2,2.2-5.6,5.8-5.6
		c1.2,0,2.2,0.3,2.7,0.5l-0.3,1.1c-0.6-0.3-1.3-0.5-2.4-0.5c-2.6,0-4.3,1.6-4.3,4.3c0,2.7,1.6,4.4,4.2,4.4c0.9,0,1.5-0.1,1.9-0.3
		v-3.2h-2.2V149h3.6V154.2z"/>
	<path fill="#FFFFFF" d="M50.9,149.4c0-0.9,0-1.7-0.1-2.4h1.2l0,1.5h0.1c0.4-1,1.2-1.7,2.1-1.7c0.2,0,0.3,0,0.4,0v1.3
		c-0.1,0-0.3,0-0.5,0c-1,0-1.7,0.8-1.9,1.8c0,0.2-0.1,0.4-0.1,0.7v4.1h-1.4V149.4z"/>
	<path fill="#FFFFFF" d="M63,150.8c0,2.9-2,4.1-3.9,4.1c-2.1,0-3.7-1.5-3.7-4c0-2.6,1.7-4.1,3.8-4.1C61.5,146.8,63,148.4,63,150.8z
		 M56.9,150.8c0,1.7,1,3,2.4,3c1.3,0,2.4-1.3,2.4-3c0-1.3-0.7-3-2.3-3C57.6,147.8,56.9,149.4,56.9,150.8z"/>
	<path fill="#FFFFFF" d="M70.3,154.4c-0.4,0.2-1.2,0.4-2.2,0.4c-2.3,0-3.9-1.6-3.9-4c0-2.4,1.6-4.1,4.2-4.1c0.8,0,1.6,0.2,2,0.4
		l-0.3,1.1c-0.3-0.2-0.9-0.4-1.6-0.4c-1.8,0-2.7,1.3-2.7,2.9c0,1.8,1.2,2.9,2.7,2.9c0.8,0,1.3-0.2,1.7-0.4L70.3,154.4z"/>
	<path fill="#FFFFFF" d="M72.6,151.1c0,1.9,1.2,2.7,2.7,2.7c1,0,1.6-0.2,2.1-0.4l0.2,1c-0.5,0.2-1.3,0.5-2.6,0.5
		c-2.4,0-3.8-1.6-3.8-3.9s1.4-4.2,3.6-4.2c2.5,0,3.2,2.2,3.2,3.6c0,0.3,0,0.5,0,0.7H72.6z M76.8,150.1c0-0.9-0.4-2.3-2-2.3
		c-1.4,0-2,1.3-2.2,2.3H76.8z"/>
	<path fill="#FFFFFF" d="M79.9,149.4c0-0.9,0-1.7-0.1-2.4H81l0,1.5h0.1c0.4-1,1.2-1.7,2.1-1.7c0.2,0,0.3,0,0.4,0v1.3
		c-0.1,0-0.3,0-0.5,0c-1,0-1.7,0.8-1.9,1.8c0,0.2-0.1,0.4-0.1,0.7v4.1h-1.4V149.4z"/>
	<path fill="#FFFFFF" d="M86,146.9l1.7,4.6c0.2,0.5,0.4,1.1,0.5,1.6h0c0.1-0.5,0.3-1.1,0.5-1.6l1.5-4.5h1.5l-2.1,5.5
		c-1,2.7-1.7,4-2.7,4.9c-0.7,0.6-1.4,0.8-1.7,0.9l-0.4-1.2c0.4-0.1,0.8-0.3,1.2-0.7c0.4-0.3,0.9-0.8,1.2-1.6
		c0.1-0.1,0.1-0.3,0.1-0.3s0-0.2-0.1-0.4l-2.9-7.1H86z"/>
	<path fill="#FFFFFF" d="M96.3,153c0.6,0.4,1.5,0.7,2.5,0.7c1.4,0,2.3-0.8,2.3-1.8c0-1-0.6-1.6-2-2.1c-1.8-0.6-2.8-1.5-2.8-3.1
		c0-1.7,1.4-2.9,3.5-2.9c1.1,0,1.9,0.3,2.4,0.5l-0.4,1.1c-0.4-0.2-1.1-0.5-2-0.5c-1.5,0-2,0.9-2,1.6c0,1,0.7,1.5,2.1,2.1
		c1.8,0.7,2.8,1.6,2.8,3.2c0,1.7-1.2,3.1-3.8,3.1c-1,0-2.2-0.3-2.8-0.7L96.3,153z"/>
	<path fill="#FFFFFF" d="M104.3,143.3h1.4v4.8h0c0.2-0.4,0.6-0.8,1-1c0.4-0.2,0.9-0.4,1.4-0.4c1,0,2.7,0.6,2.7,3.3v4.6h-1.4v-4.4
		c0-1.2-0.5-2.3-1.8-2.3c-0.9,0-1.6,0.6-1.9,1.4c-0.1,0.2-0.1,0.4-0.1,0.7v4.7h-1.4V143.3z"/>
	<path fill="#FFFFFF" d="M120.2,150.8c0,2.9-2,4.1-3.9,4.1c-2.1,0-3.7-1.5-3.7-4c0-2.6,1.7-4.1,3.8-4.1
		C118.7,146.8,120.2,148.4,120.2,150.8z M114.1,150.8c0,1.7,1,3,2.4,3c1.3,0,2.4-1.3,2.4-3c0-1.3-0.7-3-2.3-3
		S114.1,149.4,114.1,150.8z"/>
	<path fill="#FFFFFF" d="M122,149.5c0-1,0-1.8-0.1-2.5h1.3l0.1,1.3h0c0.6-0.9,1.5-1.5,2.8-1.5c1.9,0,3.3,1.6,3.3,3.9
		c0,2.8-1.7,4.2-3.5,4.2c-1,0-1.9-0.4-2.4-1.2h0v4.2H122V149.5z M123.4,151.5c0,0.2,0,0.4,0.1,0.6c0.3,1,1.1,1.6,2.1,1.6
		c1.5,0,2.4-1.2,2.4-3c0-1.6-0.8-2.9-2.3-2.9c-1,0-1.9,0.7-2.1,1.7c0,0.2-0.1,0.4-0.1,0.6V151.5z"/>
	<path fill="#FFFFFF" d="M131.1,149.5c0-1,0-1.8-0.1-2.5h1.3l0.1,1.3h0c0.6-0.9,1.5-1.5,2.8-1.5c1.9,0,3.3,1.6,3.3,3.9
		c0,2.8-1.7,4.2-3.5,4.2c-1,0-1.9-0.4-2.4-1.2h0v4.2h-1.4V149.5z M132.5,151.5c0,0.2,0,0.4,0.1,0.6c0.3,1,1.1,1.6,2.1,1.6
		c1.5,0,2.4-1.2,2.4-3c0-1.6-0.8-2.9-2.3-2.9c-1,0-1.9,0.7-2.1,1.7c0,0.2-0.1,0.4-0.1,0.6V151.5z"/>
	<path fill="#FFFFFF" d="M141.8,144.8c0,0.5-0.3,0.9-0.9,0.9c-0.5,0-0.8-0.4-0.8-0.9c0-0.5,0.4-0.9,0.9-0.9
		C141.4,143.9,141.8,144.3,141.8,144.8z M140.2,154.7v-7.7h1.4v7.7H140.2z"/>
	<path fill="#FFFFFF" d="M143.9,149c0-0.8,0-1.5-0.1-2.1h1.2l0.1,1.3h0c0.4-0.7,1.3-1.5,2.6-1.5c1.1,0,2.7,0.6,2.7,3.3v4.6h-1.4
		v-4.5c0-1.2-0.5-2.3-1.8-2.3c-0.9,0-1.6,0.7-1.9,1.4c-0.1,0.2-0.1,0.4-0.1,0.7v4.7h-1.4V149z"/>
	<path fill="#FFFFFF" d="M159.5,146.9c0,0.6-0.1,1.2-0.1,2.1v4.5c0,1.8-0.4,2.9-1.1,3.5c-0.8,0.7-1.8,0.9-2.8,0.9
		c-0.9,0-2-0.2-2.6-0.6l0.4-1.1c0.5,0.3,1.3,0.6,2.3,0.6c1.4,0,2.5-0.8,2.5-2.7v-0.9h0c-0.4,0.7-1.3,1.3-2.5,1.3
		c-1.9,0-3.3-1.6-3.3-3.8c0-2.6,1.7-4.1,3.5-4.1c1.3,0,2.1,0.7,2.4,1.3h0l0.1-1.2H159.5z M158,150c0-0.2,0-0.4-0.1-0.6
		c-0.3-0.8-0.9-1.5-2-1.5c-1.3,0-2.3,1.1-2.3,2.9c0,1.5,0.8,2.8,2.3,2.8c0.9,0,1.6-0.5,2-1.4c0.1-0.2,0.1-0.5,0.1-0.8V150z"/>
</g>
<g id="shopping_bag_2_">
	<g id="bag_2_">
		<rect x="123.8" y="51.8" fill="#FFFFFF" width="2" height="60"/>
		<path fill="#FFFFFF" d="M133.2,112.8H66.8v-62h58.2l8.3,3.3V112.8z M68.8,110.8h62.5V55.4l-6.7-2.7H68.8V110.8z"/>
	</g>
	<g id="handles_2_">
		<path fill="#FFFFFF" d="M108.2,61.8c-0.6,0-1-0.4-1-1V45.3l-4-6.1l-10,0l-5.5,0l-4,6.1v15.4c0,0.6-0.4,1-1,1s-1-0.4-1-1V44.7
			l5-7.4l17.6,0l5,7.4v16.1C109.2,61.3,108.7,61.8,108.2,61.8z"/>
		<path fill="#FFFFFF" d="M117.2,52.8c-0.6,0-1-0.4-1-1v-7.9l-4-4.6H96.6l-4,5.1v7.4c0,0.6-0.4,1-1,1s-1-0.4-1-1v-8.1l5-6.4h17.4
			l5,5.9v8.6C118.2,52.3,117.7,52.8,117.2,52.8z"/>
	</g>
	<g>
		<path fill="#FFFFFF" d="M96,94c-6.1,0-11-4.9-11-11c0-5.2,4.1-11.6,8.8-11.6c0.9,0,1.8,0.2,2.7,0.7c0.7,0.4,1.5,0.8,2.2,1.2
			c4.1,2.2,8.3,4.4,8.3,9.7C107,89.1,102.1,94,96,94z M93.8,73.4c-3.4,0-6.8,5.5-6.8,9.6c0,5,4,9,9,9s9-4,9-9c0-4.1-3.4-5.8-7.2-7.9
			c-0.8-0.4-1.5-0.8-2.3-1.2C95,73.6,94.4,73.4,93.8,73.4z"/>
		<g>
			<path fill="#FFFFFF" d="M100.4,79.4c-5,1.7-5.8-3.3-5.8-3.3s-1.1,2.4,1.4,4.1C98.8,82,100.4,79.4,100.4,79.4z"/>
			<path fill="#FFFFFF" d="M97.9,81.3C97.9,81.3,97.9,81.3,97.9,81.3c-0.7,0-1.5-0.3-2.2-0.7c-2.3-1.5-2.1-3.8-1.6-4.7l0.7-1.5
				l0.3,1.6c0,0.1,0.6,3.3,3.4,3.3c0,0,0,0,0,0c0.5,0,1.1-0.1,1.7-0.3l1.3-0.4l-0.7,1.2C100.8,79.7,99.8,81.3,97.9,81.3z M95.1,78.5
				c0.2,0.4,0.6,0.8,1.2,1.2c0.8,0.6,1.7,0.7,2.3,0.5c0,0,0,0-0.1,0h0C96.9,80.2,95.8,79.4,95.1,78.5z"/>
		</g>
		<path fill="#FFFFFF" d="M97.5,77.5c0,0,0-4.5,4.6-6.1l0.8,1.9c0,0-3,1-3.8,4.5L97.5,77.5z"/>
	</g>
</g>
</svg>
