<?xml version="1.0" encoding="utf-8"?>
<!-- Generator: Adobe Illustrator 18.1.1, SVG Export Plug-In . SVG Version: 6.00 Build 0)  -->
<svg version="1.1" id="Layer_1" xmlns="http://www.w3.org/2000/svg" xmlns:xlink="http://www.w3.org/1999/xlink" x="0px" y="0px"
	 viewBox="0 0 200 200" enable-background="new 0 0 200 200" xml:space="preserve">
<text transform="matrix(1 0 0 1 39.4885 154.6964)" fill="#FFFFFF" font-family="'MyriadPro-Regular'" font-size="16">Grocery Shopping</text>
<g id="shopping_bag_2_">
	<g id="bag_2_">
		<rect x="123.8" y="51.8" fill="#FFFFFF" width="2" height="60"/>
		<path fill="#FFFFFF" d="M133.2,112.8H66.8v-62h58.2l8.3,3.3V112.8z M68.8,110.8h62.5V55.4l-6.7-2.7H68.8V110.8z"/>
	</g>
	<g id="handles_2_">
		<path fill="#FFFFFF" d="M108.2,61.8c-0.6,0-1-0.4-1-1V45.3l-4-6.1l-10,0l-5.5,0l-4,6.1v15.4c0,0.6-0.4,1-1,1s-1-0.4-1-1V44.7
			l5-7.4l17.6,0l5,7.4v16.1C109.2,61.3,108.7,61.8,108.2,61.8z"/>
		<path fill="#FFFFFF" d="M117.2,52.8c-0.6,0-1-0.4-1-1v-7.9l-4-4.6H96.6l-4,5.1v7.4c0,0.6-0.4,1-1,1s-1-0.4-1-1v-8.1l5-6.4h17.4
			l5,5.9v8.6C118.2,52.3,117.7,52.8,117.2,52.8z"/>
	</g>
	<g>
		<path fill="#FFFFFF" d="M96,94c-6.1,0-11-4.9-11-11c0-5.2,4.1-11.6,8.8-11.6c0.9,0,1.8,0.2,2.7,0.7c0.7,0.4,1.5,0.8,2.2,1.2
			c4.1,2.2,8.3,4.4,8.3,9.7C107,89.1,102.1,94,96,94z M93.8,73.4c-3.4,0-6.8,5.5-6.8,9.6c0,5,4,9,9,9s9-4,9-9c0-4.1-3.4-5.8-7.2-7.9
			c-0.8-0.4-1.5-0.8-2.3-1.2C95,73.6,94.4,73.4,93.8,73.4z"/>
		<g>
			<path fill="#FFFFFF" d="M100.4,79.4c-5,1.7-5.8-3.3-5.8-3.3s-1.1,2.4,1.4,4.1C98.8,82,100.4,79.4,100.4,79.4z"/>
			<path fill="#FFFFFF" d="M97.9,81.3C97.9,81.3,97.9,81.3,97.9,81.3c-0.7,0-1.5-0.3-2.2-0.7c-2.3-1.5-2.1-3.8-1.6-4.7l0.7-1.5
				l0.3,1.6c0,0.1,0.6,3.3,3.4,3.3c0,0,0,0,0,0c0.5,0,1.1-0.1,1.7-0.3l1.3-0.4l-0.7,1.2C100.8,79.7,99.8,81.3,97.9,81.3z M95.1,78.5
				c0.2,0.4,0.6,0.8,1.2,1.2c0.8,0.6,1.7,0.7,2.3,0.5c0,0,0,0-0.1,0h0C96.9,80.2,95.8,79.4,95.1,78.5z"/>
		</g>
		<path fill="#FFFFFF" d="M97.5,77.5c0,0,0-4.5,4.6-6.1l0.8,1.9c0,0-3,1-3.8,4.5L97.5,77.5z"/>
	</g>
</g>
</svg>
