<?xml version="1.0" encoding="utf-8"?>
<!-- Generator: Adobe Illustrator 18.1.1, SVG Export Plug-In . SVG Version: 6.00 Build 0)  -->
<svg version="1.1" id="Layer_1" xmlns="http://www.w3.org/2000/svg" xmlns:xlink="http://www.w3.org/1999/xlink" x="0px" y="0px"
	 viewBox="0 0 200 200" enable-background="new 0 0 200 200" xml:space="preserve">
<text transform="matrix(1 0 0 1 65.2322 154.6964)" fill="#FFFFFF" font-family="'MyriadPro-Regular'" font-size="16">Out To Eat</text>
<g>
	<path fill="#FFFFFF" d="M63.8,84.1l-1.4-1.4l39.9-47.4c0.1-0.1,2.8-2.3,5.7-2.3c1.5,0,2.8,0.5,3.8,1.6c1.1,1.1,1.6,2.4,1.6,3.8
		c-0.1,2.6-2.2,4.7-2.3,4.8L63.8,84.1z M103.6,36.8L72.1,74.3l37.7-32.7c0,0,0,0,0,0c0,0,1.6-1.6,1.6-3.3c0-0.9-0.3-1.6-1-2.3
		c-0.7-0.7-1.4-1-2.4-1C106,35,104,36.5,103.6,36.8z"/>
	<path fill="#FFFFFF" d="M78.6,77.7l-1-1.7l51.7-34.1c0.1,0,2-0.9,4.2-0.9c2.4,0,4.1,1,5.1,2.9c0.7,1.4,0.9,2.8,0.5,4.1
		c-0.8,2.5-3.4,3.9-3.5,3.9L78.6,77.7z M130.2,43.7l-40.9,27l45.4-20.6l0,0c0,0,2-1,2.5-2.8c0.3-0.8,0.1-1.6-0.3-2.5
		c-0.6-1.2-1.7-1.8-3.4-1.8C132,43,130.5,43.5,130.2,43.7z"/>
	<path fill="#FFFFFF" d="M80.9,100.4c-9.8,0-20.2-2.6-20.2-7.4s10.4-7.4,20.2-7.4s20.2,2.6,20.2,7.4S90.7,100.4,80.9,100.4z
		 M80.9,87.7c-11.3,0-18.2,3.1-18.2,5.4s6.9,5.4,18.2,5.4s18.2-3.1,18.2-5.4S92.2,87.7,80.9,87.7z"/>
	<path fill="#FFFFFF" d="M81,117c-9.7,0-20-2.6-20-7.5V93h2v16.5c0,2.3,6.8,5.5,18,5.5c10.6,0,18-2.8,18-5.3V95h2v14.8
		C101,114.6,90.9,117,81,117z"/>
	<path fill="#FFFFFF" d="M111.1,102.3c-4.9,0-8.7-0.4-11.6-1.1l0.5-1.9c2.7,0.7,6.4,1.1,11.1,1.1c11.1,0,17.9-3.2,17.9-5.5V80h2
		v14.8C131,99.6,120.8,102.3,111.1,102.3z"/>
	<rect x="91" y="78" fill="#FFFFFF" width="2" height="11"/>
	<path fill="#FFFFFF" d="M110.9,86.9c-9.8,0-20.2-2.6-20.2-7.4s10.4-7.4,20.2-7.4s20.2,2.6,20.2,7.4S120.7,86.9,110.9,86.9z
		 M110.9,74.2c-11.3,0-18.2,3.1-18.2,5.4s6.9,5.4,18.2,5.4s18.2-3.1,18.2-5.4S122.2,74.2,110.9,74.2z"/>
	<g>
		<ellipse fill="#FFFFFF" cx="110.4" cy="79.3" rx="5.8" ry="1.8"/>
		<path fill="#FFFFFF" d="M110.4,82c-3.2,0-6.8-0.7-6.8-2.8c0-2,3.7-2.8,6.8-2.8c3.2,0,6.8,0.7,6.8,2.8
			C117.3,81.3,113.6,82,110.4,82z M105.9,79.3c0.7,0.3,2.2,0.8,4.6,0.8s3.9-0.4,4.6-0.8c-0.7-0.3-2.2-0.8-4.6-0.8
			S106.5,79,105.9,79.3z"/>
	</g>
	<g>
		<ellipse fill="#FFFFFF" cx="80.4" cy="92.8" rx="5.8" ry="1.8"/>
		<path fill="#FFFFFF" d="M80.4,95.5c-3.2,0-6.8-0.7-6.8-2.8c0-2,3.7-2.8,6.8-2.8c3.2,0,6.8,0.7,6.8,2.8
			C87.3,94.8,83.6,95.5,80.4,95.5z M75.9,92.8c0.7,0.3,2.2,0.8,4.6,0.8s3.9-0.4,4.6-0.8c-0.7-0.3-2.2-0.8-4.6-0.8
			S76.5,92.5,75.9,92.8z"/>
	</g>
</g>
</svg>
