<?xml version="1.0" encoding="utf-8"?>
<!-- Generator: Adobe Illustrator 18.1.1, SVG Export Plug-In . SVG Version: 6.00 Build 0)  -->
<svg version="1.1" id="Layer_1" xmlns="http://www.w3.org/2000/svg" xmlns:xlink="http://www.w3.org/1999/xlink" x="0px" y="0px"
	 viewBox="0 0 200 200" enable-background="new 0 0 200 200" xml:space="preserve">
<g>
	<path fill="#FFFFFF" d="M76.6,149.2c0,3.7-2.3,5.7-5,5.7c-2.8,0-4.9-2.2-4.9-5.5c0-3.4,2.1-5.7,5-5.7
		C74.7,143.7,76.6,146,76.6,149.2z M68.2,149.4c0,2.3,1.2,4.4,3.4,4.4c2.2,0,3.5-2,3.5-4.5c0-2.1-1.1-4.4-3.4-4.4
		C69.4,144.9,68.2,147,68.2,149.4z"/>
	<path fill="#FFFFFF" d="M84.9,152.6c0,0.8,0,1.5,0.1,2.1h-1.2l-0.1-1.3h0c-0.4,0.6-1.2,1.4-2.6,1.4c-1.2,0-2.7-0.7-2.7-3.4v-4.5
		h1.4v4.3c0,1.5,0.4,2.5,1.7,2.5c0.9,0,1.6-0.7,1.9-1.3c0.1-0.2,0.1-0.5,0.1-0.7v-4.8h1.4V152.6z"/>
	<path fill="#FFFFFF" d="M88.9,144.7v2.2h2v1.1h-2v4.2c0,1,0.3,1.5,1.1,1.5c0.4,0,0.6,0,0.8-0.1l0.1,1.1c-0.3,0.1-0.7,0.2-1.2,0.2
		c-0.7,0-1.2-0.2-1.5-0.6c-0.4-0.4-0.5-1.1-0.5-2V148h-1.2v-1.1h1.2v-1.9L88.9,144.7z"/>
	<path fill="#FFFFFF" d="M97.3,145.1H94v-1.2h8v1.2h-3.3v9.6h-1.4V145.1z"/>
	<path fill="#FFFFFF" d="M109.1,150.8c0,2.9-2,4.1-3.9,4.1c-2.1,0-3.7-1.5-3.7-4c0-2.6,1.7-4.1,3.8-4.1
		C107.5,146.8,109.1,148.4,109.1,150.8z M102.9,150.8c0,1.7,1,3,2.4,3c1.3,0,2.4-1.3,2.4-3c0-1.3-0.7-3-2.3-3
		C103.6,147.8,102.9,149.4,102.9,150.8z"/>
	<path fill="#FFFFFF" d="M119.9,149.6h-4.2v3.9h4.7v1.2h-6.1v-10.8h5.8v1.2h-4.4v3.4h4.2V149.6z"/>
	<path fill="#FFFFFF" d="M126.4,154.7l-0.1-1h0c-0.4,0.6-1.3,1.2-2.4,1.2c-1.6,0-2.4-1.1-2.4-2.2c0-1.9,1.7-2.9,4.7-2.9v-0.2
		c0-0.6-0.2-1.8-1.8-1.8c-0.7,0-1.5,0.2-2,0.6l-0.3-0.9c0.6-0.4,1.6-0.7,2.5-0.7c2.4,0,2.9,1.6,2.9,3.2v2.9c0,0.7,0,1.3,0.1,1.9
		H126.4z M126.2,150.7c-1.5,0-3.3,0.2-3.3,1.7c0,0.9,0.6,1.3,1.3,1.3c1,0,1.6-0.6,1.9-1.3c0-0.1,0.1-0.3,0.1-0.4V150.7z"/>
	<path fill="#FFFFFF" d="M131.4,144.7v2.2h2v1.1h-2v4.2c0,1,0.3,1.5,1.1,1.5c0.4,0,0.6,0,0.8-0.1l0.1,1.1c-0.3,0.1-0.7,0.2-1.2,0.2
		c-0.7,0-1.2-0.2-1.5-0.6c-0.4-0.4-0.5-1.1-0.5-2V148h-1.2v-1.1h1.2v-1.9L131.4,144.7z"/>
</g>
<g>
	<path fill="#FFFFFF" d="M63.8,84.1l-1.4-1.4l39.9-47.4c0.1-0.1,2.8-2.3,5.7-2.3c1.5,0,2.8,0.5,3.8,1.6c1.1,1.1,1.6,2.4,1.6,3.8
		c-0.1,2.6-2.2,4.7-2.3,4.8L63.8,84.1z M103.6,36.8L72.1,74.3l37.7-32.7c0,0,0,0,0,0c0,0,1.6-1.6,1.6-3.3c0-0.9-0.3-1.6-1-2.3
		c-0.7-0.7-1.4-1-2.4-1C106,35,104,36.5,103.6,36.8z"/>
	<path fill="#FFFFFF" d="M78.6,77.7l-1-1.7l51.7-34.1c0.1,0,2-0.9,4.2-0.9c2.4,0,4.1,1,5.1,2.9c0.7,1.4,0.9,2.8,0.5,4.1
		c-0.8,2.5-3.4,3.9-3.5,3.9L78.6,77.7z M130.2,43.7l-40.9,27l45.4-20.6l0,0c0,0,2-1,2.5-2.8c0.3-0.8,0.1-1.6-0.3-2.5
		c-0.6-1.2-1.7-1.8-3.4-1.8C132,43,130.5,43.5,130.2,43.7z"/>
	<path fill="#FFFFFF" d="M80.9,100.4c-9.8,0-20.2-2.6-20.2-7.4s10.4-7.4,20.2-7.4s20.2,2.6,20.2,7.4S90.7,100.4,80.9,100.4z
		 M80.9,87.7c-11.3,0-18.2,3.1-18.2,5.4s6.9,5.4,18.2,5.4s18.2-3.1,18.2-5.4S92.2,87.7,80.9,87.7z"/>
	<path fill="#FFFFFF" d="M81,117c-9.7,0-20-2.6-20-7.5V93h2v16.5c0,2.3,6.8,5.5,18,5.5c10.6,0,18-2.8,18-5.3V95h2v14.8
		C101,114.6,90.9,117,81,117z"/>
	<path fill="#FFFFFF" d="M111.1,102.3c-4.9,0-8.7-0.4-11.6-1.1l0.5-1.9c2.7,0.7,6.4,1.1,11.1,1.1c11.1,0,17.9-3.2,17.9-5.5V80h2
		v14.8C131,99.6,120.8,102.3,111.1,102.3z"/>
	<rect x="91" y="78" fill="#FFFFFF" width="2" height="11"/>
	<path fill="#FFFFFF" d="M110.9,86.9c-9.8,0-20.2-2.6-20.2-7.4s10.4-7.4,20.2-7.4s20.2,2.6,20.2,7.4S120.7,86.9,110.9,86.9z
		 M110.9,74.2c-11.3,0-18.2,3.1-18.2,5.4s6.9,5.4,18.2,5.4s18.2-3.1,18.2-5.4S122.2,74.2,110.9,74.2z"/>
	<g>
		<ellipse fill="#FFFFFF" cx="110.4" cy="79.3" rx="5.8" ry="1.8"/>
		<path fill="#FFFFFF" d="M110.4,82c-3.2,0-6.8-0.7-6.8-2.8c0-2,3.7-2.8,6.8-2.8c3.2,0,6.8,0.7,6.8,2.8
			C117.3,81.3,113.6,82,110.4,82z M105.9,79.3c0.7,0.3,2.2,0.8,4.6,0.8s3.9-0.4,4.6-0.8c-0.7-0.3-2.2-0.8-4.6-0.8
			S106.5,79,105.9,79.3z"/>
	</g>
	<g>
		<ellipse fill="#FFFFFF" cx="80.4" cy="92.8" rx="5.8" ry="1.8"/>
		<path fill="#FFFFFF" d="M80.4,95.5c-3.2,0-6.8-0.7-6.8-2.8c0-2,3.7-2.8,6.8-2.8c3.2,0,6.8,0.7,6.8,2.8
			C87.3,94.8,83.6,95.5,80.4,95.5z M75.9,92.8c0.7,0.3,2.2,0.8,4.6,0.8s3.9-0.4,4.6-0.8c-0.7-0.3-2.2-0.8-4.6-0.8
			S76.5,92.5,75.9,92.8z"/>
	</g>
</g>
</svg>
