<?xml version="1.0" encoding="utf-8"?>
<!-- Generator: Adobe Illustrator 18.1.1, SVG Export Plug-In . SVG Version: 6.00 Build 0)  -->
<svg version="1.1" id="Layer_1" xmlns="http://www.w3.org/2000/svg" xmlns:xlink="http://www.w3.org/1999/xlink" x="0px" y="0px"
	 viewBox="0 0 200 200" enable-background="new 0 0 200 200" xml:space="preserve">
<text transform="matrix(1 0 0 1 63.2083 154.6962)" fill="#FFFFFF" font-family="'MyriadPro-Regular'" font-size="16">Visit A Park</text>
<g id="lotus">
	<path fill="#FFFFFF" d="M100,106.3c-0.3,0-0.6-0.1-0.8-0.3c-0.4-0.5-10.7-12.5-10.7-30.7c0-18.1,10.2-33.3,10.7-33.9
		c0.4-0.5,1.3-0.5,1.6,0c0.4,0.6,10.7,15.8,10.7,33.9c0,18.2-10.3,30.2-10.7,30.7C100.6,106.2,100.3,106.3,100,106.3z M100,43.9
		c-2.4,4-9.5,16.9-9.5,31.5c0,14.6,7.1,25.3,9.5,28.4c2.4-3.1,9.5-13.8,9.5-28.4C109.5,60.8,102.4,47.9,100,43.9z"/>
	<path fill="#FFFFFF" d="M94.1,109c-5.2,0-13.3-1.1-22.5-6.4c-15.7-9.1-21.8-23.6-22-24.2c-0.1-0.3-0.1-0.6,0.1-0.9s0.5-0.4,0.8-0.5
		c0,0,0.4,0,1.2,0c3.7,0,16.7,0.6,30,8.3c15.8,9.1,19.2,21.4,19.3,21.9c0.1,0.3,0,0.5-0.1,0.8c-0.1,0.2-0.4,0.4-0.6,0.5
		C100.2,108.4,97.9,109,94.1,109z M52.1,79c1.9,3.8,8.2,14.7,20.6,21.9c12.5,7.2,22.8,6.3,26.1,5.8c-1.2-3.1-5.6-12.5-18.1-19.7
		C68.2,79.8,56.1,79,52.1,79z"/>
	<path fill="#FFFFFF" d="M105.9,109L105.9,109c-3.8,0-6.1-0.6-6.2-0.6c-0.3-0.1-0.5-0.2-0.6-0.5c-0.1-0.2-0.2-0.5-0.1-0.8
		c0.1-0.5,3.6-12.8,19.3-21.9c13.3-7.7,26.3-8.3,30-8.3c0.8,0,1.2,0,1.2,0c0.3,0,0.6,0.2,0.8,0.5s0.2,0.6,0.1,0.9
		c-0.3,0.6-6.3,15.1-22,24.2C119.2,107.9,111.1,109,105.9,109z M101.3,106.7c3.3,0.5,13.6,1.4,26.1-5.8
		c12.4-7.1,18.6-18.1,20.6-21.9c-4,0-16.1,0.8-28.6,8C106.9,94.2,102.5,103.6,101.3,106.7z"/>
	<path fill="#FFFFFF" d="M100,108.4c-0.2,0-0.3,0-0.5-0.1c-0.2-0.1-0.4-0.4-0.5-0.6c-0.1-0.5-3.3-12.9,5.8-28.6
		c9.1-15.7,22.7-21.2,23.3-21.5c0.3-0.1,0.6-0.1,0.9,0.1c0.3,0.2,0.4,0.4,0.5,0.7c0.1,0.6,1.7,15-7.3,30.7
		c-9.1,15.8-21.4,19.2-21.9,19.4C100.2,108.4,100.1,108.4,100,108.4z M127.6,60c-3.6,1.8-13.9,7.7-21,20
		c-7.2,12.4-6.3,22.8-5.8,26.1c3.1-1.2,12.5-5.6,19.7-18.1C127.6,75.7,127.8,63.9,127.6,60z"/>
	<path fill="#FFFFFF" d="M100,108.4c-0.1,0-0.2,0-0.3,0c-0.5-0.1-12.8-3.6-21.9-19.3c-9.1-15.7-7.4-30.1-7.3-30.7
		c0-0.3,0.2-0.6,0.5-0.7c0.3-0.2,0.6-0.2,0.9-0.1c0.6,0.2,14.2,5.8,23.3,21.5c9.1,15.8,5.9,28.1,5.8,28.6c-0.1,0.3-0.2,0.5-0.5,0.6
		C100.3,108.4,100.2,108.4,100,108.4z M72.4,60c-0.2,3.9,0,15.7,7.2,28c7.2,12.4,16.6,16.9,19.7,18.1c0.5-3.3,1.4-13.6-5.8-26.1
		C86.3,67.7,76,61.8,72.4,60z"/>
</g>
</svg>
