<?xml version="1.0" encoding="utf-8"?>
<!-- Generator: Adobe Illustrator 18.1.1, SVG Export Plug-In . SVG Version: 6.00 Build 0)  -->
<svg version="1.1" id="Layer_1" xmlns="http://www.w3.org/2000/svg" xmlns:xlink="http://www.w3.org/1999/xlink" x="0px" y="0px"
	 viewBox="0 0 200 200" enable-background="new 0 0 200 200" xml:space="preserve">
<path fill="#FFFFFF" d="M82.6,66.5c0.2,0.1,0.4,0.1,0.5,0.2l0.4,0.1c0.1,0.1,0.3,0.1,0.5,0.2c1.5,0.5,3,0.7,4.5,0.7h0
	c0.5,0,1,0,1.5-0.1c0.2,0,0.4,0,0.6-0.1l0.3,0c0.2,0,0.5-0.1,0.7-0.1c0.1,0,0.3-0.1,0.4-0.1l0.4-0.1c0.2-0.1,0.4-0.1,0.7-0.2
	c0.1,0,0.2-0.1,0.3-0.1l0.3-0.1c0.2-0.1,0.5-0.2,0.7-0.3c0.1,0,0.2-0.1,0.4-0.2c0.3-0.1,0.6-0.3,1-0.5l0.2-0.1
	c0.4-0.2,0.7-0.4,1-0.6l0.1-0.1c4.1-2.8,6.5-7.5,6.5-12.5c0-8.3-6.8-15.1-15.1-15.1c-8,0-14.6,6.2-15.1,14.2l0,0.2
	c0,0.2,0,0.5,0,0.8C73.4,58.6,77,64.1,82.6,66.5z M76.4,52l0-0.2c0.4-6.4,5.7-11.4,12.1-11.4c6.7,0,12.1,5.4,12.1,12.1
	c0,4-2,7.8-5.3,10l-0.1,0.1c-0.3,0.2-0.5,0.3-0.8,0.5l-0.2,0.1c-0.2,0.1-0.5,0.2-0.8,0.4l-0.3,0.1c-0.2,0.1-0.4,0.1-0.5,0.2
	l-0.6,0.2c-0.1,0-0.3,0.1-0.4,0.1l-0.4,0.1c-0.1,0-0.2,0.1-0.3,0.1c-0.2,0-0.3,0.1-0.5,0.1l-0.4,0.1c-0.1,0-0.2,0-0.3,0
	c-0.4,0-0.8,0.1-1.2,0.1c-1.2,0-2.5-0.2-3.6-0.5c-0.1,0-0.2-0.1-0.3-0.1l-0.4-0.2c-0.1,0-0.3-0.1-0.4-0.1c-4.5-1.9-7.4-6.3-7.4-11.2
	C76.4,52.4,76.4,52.2,76.4,52z M114.6,70.6c-4.2,0-8,1.2-11.3,3.3c-4.2-3.3-9.4-5.2-14.8-5.2c-13.3,0-24.1,10.8-24.1,24.1
	c0,0.2,0,0.4,0,0.7l0.1,1.8h29.4c1.7,9.9,10.3,17.4,20.7,17.4c11.6,0,21-9.4,21-21S126.2,70.6,114.6,70.6z M93.6,92.2H67.4
	c0.3-11.3,9.6-20.5,21-20.5c4.4,0,8.8,1.4,12.3,4c-0.1,0.1-0.1,0.1-0.2,0.2c-0.4,0.4-0.9,0.8-1.3,1.3c-0.1,0.1-0.2,0.2-0.3,0.3
	c-0.4,0.4-0.8,0.9-1.1,1.4c-0.1,0.1-0.2,0.2-0.2,0.3c-0.4,0.5-0.7,1-1,1.5c-0.1,0.1-0.1,0.2-0.2,0.3c-0.3,0.6-0.6,1.1-0.9,1.7
	c0,0.1-0.1,0.2-0.1,0.2c-0.3,0.6-0.5,1.2-0.7,1.9c0,0.1,0,0.1-0.1,0.2c-0.2,0.6-0.4,1.3-0.5,1.9c0,0.1,0,0.1-0.1,0.2
	c-0.1,0.6-0.2,1.3-0.3,1.9c0,0.1,0,0.2,0,0.3c-0.1,0.7-0.1,1.5-0.1,2.2C93.6,91.8,93.6,92,93.6,92.2z M114.6,109.6
	c-9.3,0-16.9-7-17.9-16.1c-0.1-0.7-0.1-1.3-0.1-1.9c0-0.7,0-1.4,0.1-2c0-0.2,0-0.3,0.1-0.4c0.1-0.5,0.2-1.1,0.3-1.6
	c0-0.1,0.1-0.3,0.1-0.4c0.1-0.5,0.3-1.1,0.5-1.6c0-0.1,0.1-0.2,0.1-0.3c0.2-0.6,0.5-1.2,0.8-1.8c0,0,0,0,0,0
	c0.6-1.2,1.4-2.4,2.4-3.5c0,0,0,0,0,0c0.4-0.5,0.9-1,1.4-1.4c0.1-0.1,0.1-0.1,0.2-0.2c0.5-0.4,0.9-0.8,1.4-1.2
	c0.1-0.1,0.2-0.2,0.3-0.3l0.2-0.2c2.9-1.9,6.3-3,10-3c9.9,0,18,8.1,18,18S124.5,109.6,114.6,109.6z M116.8,89.4h8.8v4.5h-8.8v8.8
	h-4.5v-8.8h-8.8v-4.5h8.8v-8.8h4.5V89.4z"/>
<text transform="matrix(1 0 0 1 64.2561 154.6967)" fill="#FFFFFF" font-family="'MyriadPro-Regular'" font-size="16">Add Photo</text>
</svg>
