<?xml version="1.0" encoding="utf-8"?>
<!-- Generator: Adobe Illustrator 18.1.1, SVG Export Plug-In . SVG Version: 6.00 Build 0)  -->
<svg version="1.1" id="Layer_1" xmlns="http://www.w3.org/2000/svg" xmlns:xlink="http://www.w3.org/1999/xlink" x="0px" y="0px"
	 viewBox="0 0 110 84" enable-background="new 0 0 110 84" xml:space="preserve">
<g>
	<polygon fill="#8E44AD" points="7.6,0.1 2.6,0.1 2.6,35.1 19.6,35.1 19.6,31.1 7.6,31.1 	"/>
	<rect x="27.6" y="7.1" fill="#8E44AD" width="5" height="28"/>
	<rect x="27.6" y="0.1" fill="#8E44AD" width="5" height="4"/>
	<polygon fill="#8E44AD" points="70.6,0.1 65.6,0.1 65.6,6.1 60.6,6.1 60.6,10.1 65.6,10.1 65.6,35.1 70.6,35.1 70.6,10.1 
		77.6,10.1 77.6,6.1 70.6,6.1 	"/>
	<path fill="#8E44AD" d="M104,10.3c-2.7-2.7-6.3-4.2-10.1-4.2c-3.8,0-7.5,1.5-10.2,4.2C78.1,15.9,78,25,83.6,30.6l10,10.2L104,30.5
		c2.7-2.7,4.2-6.3,4.2-10.1C108.2,16.6,106.7,13,104,10.3z M93.7,34.7l-7-7.1c-3.9-3.9-3.9-10.3,0.1-14.2c1.9-1.9,4.5-3,7.2-3
		c2.7,0,5.2,1,7.1,2.9c1.9,1.9,2.9,4.4,2.9,7.1c0,2.7-1.1,5.2-3,7.1L93.7,34.7z"/>
	<path fill="#8E44AD" d="M48.9,10.5c1.7,0,3.3,0.8,5,2.4l0.4,0.3l2.9-2.9L56.8,10c-2.6-2.5-5.2-3.7-7.7-3.7c-2.2,0-4.1,0.7-5.6,2.1
		c-1.5,1.4-2.2,3.2-2.2,5.4c0,1.6,0.5,3.1,1.4,4.4c0.9,1.3,2.6,2.5,5.1,3.8c2.2,1.1,3.6,2,4.2,2.7c0.6,0.7,0.8,1.4,0.8,2.3
		c0,1.1-0.4,1.9-1.3,2.7c-0.9,0.8-1.9,1.2-3.2,1.2c-1.8,0-3.6-1-5.3-2.9l-0.4-0.4l-3,3l0.3,0.3c1,1.3,2.5,2.5,3.9,3.2
		c1.5,0.7,3,1,4.6,1c2.4,0,4.5-0.8,6.1-2.4c1.6-1.6,2.4-3.6,2.4-5.9c0-1.6-0.5-3.2-1.4-4.5c-1-1.3-2.7-2.6-5.4-4c-2-1-3.3-1.9-4-2.7
		c-0.6-0.7-0.9-1.4-0.9-2.1c0-0.8,0.3-1.6,1-2.2C47.1,10.8,47.9,10.5,48.9,10.5z"/>
</g>
<g>
	<polygon fill="#FFFFFF" points="7.6,43.1 2.6,43.1 2.6,78.1 19.6,78.1 19.6,74.1 7.6,74.1 	"/>
	<rect x="27.6" y="50.1" fill="#FFFFFF" width="5" height="28"/>
	<rect x="27.6" y="43.1" fill="#FFFFFF" width="5" height="4"/>
	<polygon fill="#FFFFFF" points="70.6,43.1 65.6,43.1 65.6,49.1 60.6,49.1 60.6,53.1 65.6,53.1 65.6,78.1 70.6,78.1 70.6,53.1 
		77.6,53.1 77.6,49.1 70.6,49.1 	"/>
	<path fill="#FFFFFF" d="M104,53.3c-2.7-2.7-6.3-4.2-10.1-4.2c-3.8,0-7.5,1.5-10.2,4.2C78.1,58.9,78,68,83.6,73.6l10,10.2L104,73.5
		c2.7-2.7,4.2-6.3,4.2-10.1C108.2,59.6,106.7,56,104,53.3z M93.7,77.7l-7-7.1c-3.9-3.9-3.9-10.3,0.1-14.2c1.9-1.9,4.5-3,7.2-3
		c2.7,0,5.2,1,7.1,2.9c1.9,1.9,2.9,4.4,2.9,7.1c0,2.7-1.1,5.2-3,7.1L93.7,77.7z"/>
	<path fill="#FFFFFF" d="M48.9,53.5c1.7,0,3.3,0.8,5,2.4l0.4,0.3l2.9-2.9L56.8,53c-2.6-2.5-5.2-3.7-7.7-3.7c-2.2,0-4.1,0.7-5.6,2.1
		c-1.5,1.4-2.2,3.2-2.2,5.4c0,1.6,0.5,3.1,1.4,4.4c0.9,1.3,2.6,2.5,5.1,3.8c2.2,1.1,3.6,2,4.2,2.7c0.6,0.7,0.8,1.4,0.8,2.3
		c0,1.1-0.4,1.9-1.3,2.7c-0.9,0.8-1.9,1.2-3.2,1.2c-1.8,0-3.6-1-5.3-2.9l-0.4-0.4l-3,3l0.3,0.3c1,1.3,2.5,2.5,3.9,3.2
		c1.5,0.7,3,1,4.6,1c2.4,0,4.5-0.8,6.1-2.4c1.6-1.6,2.4-3.6,2.4-5.9c0-1.6-0.5-3.2-1.4-4.5c-1-1.3-2.7-2.6-5.4-4c-2-1-3.3-1.9-4-2.7
		c-0.6-0.7-0.9-1.4-0.9-2.1c0-0.8,0.3-1.6,1-2.2C47.1,53.8,47.9,53.5,48.9,53.5z"/>
</g>
</svg>
